<svg width="20" height="20" viewBox="0 0 20 20" fill="none" xmlns="http://www.w3.org/2000/svg">
<g id="Group">
<path id="Vector" d="M6.51821 7.80109L1.54512 4.66016C-0.513314 7.91253 -0.516765 12.0814 1.54512 15.3392L6.51821 12.1983C5.67062 10.8591 5.6692 9.14254 6.51821 7.80109ZM3.18248 11.9925L2.96479 10.8366L4.12077 10.6189L4.33846 11.7748L3.18248 11.9925ZM4.12089 9.37948L2.96494 9.16163L3.18279 8.00569L4.33874 8.22358L4.12089 9.37948Z" fill="white"/>
<path id="Vector_2" d="M10.5884 11.1763C11.2381 11.1763 11.7647 10.6497 11.7647 10C11.7647 9.35037 11.2381 8.82373 10.5884 8.82373C9.93875 8.82373 9.41211 9.35037 9.41211 10C9.41211 10.6497 9.93875 11.1763 10.5884 11.1763Z" fill="white"/>
<path id="Vector_3" d="M17.2412 3.34579C13.2129 -0.68246 6.58624 -0.228176 3.125 4.26726L7.13886 6.80229C7.99873 5.87565 9.22627 5.29475 10.5871 5.29475C13.1815 5.29475 15.2923 7.40546 15.2923 9.99993C15.2923 12.5944 13.1815 14.7051 10.5871 14.7051C9.22627 14.7051 7.99873 14.1242 7.13886 13.1976L3.125 15.7326C6.59397 20.238 13.2219 20.6733 17.2412 16.654C20.9187 12.9764 20.9192 7.02387 17.2412 3.34579ZM7.78747 4.79416L7.33617 3.7079L8.42243 3.25659L8.87374 4.34286L7.78747 4.79416ZM13.3757 4.78832L12.2885 4.33929L12.7375 3.25204L13.8248 3.70107L13.3757 4.78832ZM8.43667 16.7478L7.34942 16.2988L7.79845 15.2116L8.8857 15.6606L8.43667 16.7478ZM12.7517 16.7432L12.3004 15.657L13.3867 15.2057L13.838 16.2919L12.7517 16.7432ZM16.8791 6.74905L17.3304 7.83531L16.2441 8.28662L15.7928 7.20035L16.8791 6.74905ZM16.8859 13.2376L15.7987 12.7886L16.2477 11.7013L17.3349 12.1503L16.8859 13.2376Z" fill="white"/>
<path id="Vector_4" d="M10.5875 13.5289C12.6356 13.5289 14.2626 11.7817 14.106 9.72897C13.9673 7.91129 12.444 6.47119 10.5875 6.47119C8.62436 6.47119 7.05859 8.06993 7.05859 10.0001C7.05859 11.9461 8.63977 13.5289 10.5875 13.5289ZM10.5875 7.64748C11.8847 7.64748 12.9401 8.70285 12.9401 10.0001C12.9401 11.2973 11.8847 12.3527 10.5875 12.3527C9.29026 12.3527 8.23489 11.2973 8.23489 10.0001C8.23489 8.70285 9.29026 7.64748 10.5875 7.64748Z" fill="white"/>
</g>
</svg>
