<svg width="25" height="24" viewBox="0 0 25 24" fill="none" xmlns="http://www.w3.org/2000/svg">
<path d="M22.2605 15.42L15.8605 3.9C15.0005 2.35 13.8105 1.5 12.5005 1.5C11.1905 1.5 10.0005 2.35 9.14047 3.9L2.74047 15.42C1.93047 16.89 1.84047 18.3 2.49047 19.41C3.14047 20.52 4.42047 21.13 6.10047 21.13H18.9005C20.5805 21.13 21.8605 20.52 22.5105 19.41C23.1605 18.3 23.0705 16.88 22.2605 15.42Z" fill="#4EC1C1"/>
<path d="M12.5 14.25C12.09 14.25 11.75 13.91 11.75 13.5V8.5C11.75 8.09 12.09 7.75 12.5 7.75C12.91 7.75 13.25 8.09 13.25 8.5V13.5C13.25 13.91 12.91 14.25 12.5 14.25Z" fill="white"/>
<path d="M12.5 17.4986C12.44 17.4986 12.37 17.4886 12.3 17.4786C12.24 17.4686 12.18 17.4486 12.12 17.4186C12.06 17.3986 12 17.3686 11.94 17.3286C11.89 17.2886 11.84 17.2486 11.79 17.2086C11.61 17.0186 11.5 16.7586 11.5 16.4986C11.5 16.2386 11.61 15.9786 11.79 15.7886C11.84 15.7486 11.89 15.7086 11.94 15.6686C12 15.6286 12.06 15.5986 12.12 15.5786C12.18 15.5486 12.24 15.5286 12.3 15.5186C12.43 15.4886 12.57 15.4886 12.69 15.5186C12.76 15.5286 12.82 15.5486 12.88 15.5786C12.94 15.5986 13 15.6286 13.06 15.6686C13.11 15.7086 13.16 15.7486 13.21 15.7886C13.39 15.9786 13.5 16.2386 13.5 16.4986C13.5 16.7586 13.39 17.0186 13.21 17.2086C13.16 17.2486 13.11 17.2886 13.06 17.3286C13 17.3686 12.94 17.3986 12.88 17.4186C12.82 17.4486 12.76 17.4686 12.69 17.4786C12.63 17.4886 12.56 17.4986 12.5 17.4986Z" fill="white"/>
</svg>
