<svg width="24" height="23" viewBox="0 0 24 23" fill="none" xmlns="http://www.w3.org/2000/svg">
<g id="danger">
<g id="vuesax/bulk/danger">
<g id="danger_2">
<path id="Vector" d="M21.7605 14.92L15.3605 3.4C14.5005 1.85 13.3105 1 12.0005 1C10.6905 1 9.50047 1.85 8.64047 3.4L2.24047 14.92C1.43047 16.39 1.34047 17.8 1.99047 18.91C2.64047 20.02 3.92047 20.63 5.60047 20.63H18.4005C20.0805 20.63 21.3605 20.02 22.0105 18.91C22.6605 17.8 22.5705 16.38 21.7605 14.92Z" fill="white"/>
<path id="Vector_2" d="M12 13.75C11.59 13.75 11.25 13.41 11.25 13V8C11.25 7.59 11.59 7.25 12 7.25C12.41 7.25 12.75 7.59 12.75 8V13C12.75 13.41 12.41 13.75 12 13.75Z" fill="#4EC1C1"/>
<path id="Vector_3" d="M12 16.9986C11.94 16.9986 11.87 16.9886 11.8 16.9786C11.74 16.9686 11.68 16.9486 11.62 16.9186C11.56 16.8986 11.5 16.8686 11.44 16.8286C11.39 16.7886 11.34 16.7486 11.29 16.7086C11.11 16.5186 11 16.2586 11 15.9986C11 15.7386 11.11 15.4786 11.29 15.2886C11.34 15.2486 11.39 15.2086 11.44 15.1686C11.5 15.1286 11.56 15.0986 11.62 15.0786C11.68 15.0486 11.74 15.0286 11.8 15.0186C11.93 14.9886 12.07 14.9886 12.19 15.0186C12.26 15.0286 12.32 15.0486 12.38 15.0786C12.44 15.0986 12.5 15.1286 12.56 15.1686C12.61 15.2086 12.66 15.2486 12.71 15.2886C12.89 15.4786 13 15.7386 13 15.9986C13 16.2586 12.89 16.5186 12.71 16.7086C12.66 16.7486 12.61 16.7886 12.56 16.8286C12.5 16.8686 12.44 16.8986 12.38 16.9186C12.32 16.9486 12.26 16.9686 12.19 16.9786C12.13 16.9886 12.06 16.9986 12 16.9986Z" fill="#4EC1C1"/>
</g>
</g>
</g>
</svg>
