<svg width="188" height="190" viewBox="0 0 188 190" fill="none" xmlns="http://www.w3.org/2000/svg">
<g id="vuesax/bold/driving">
<g id="driving">
<path id="Union" fill-rule="evenodd" clip-rule="evenodd" d="M156.666 50.4628C156.666 52.8905 154.452 54.8327 151.883 54.8327H36.1157C33.4585 54.8327 31.3327 52.8096 31.3327 50.4628C31.3327 48.0352 33.5471 46.093 36.1157 46.093H42.6703L45.1504 35.4921C47.4533 25.134 52.2363 15.666 71.3685 15.666H116.453C135.585 15.666 140.457 25.134 142.76 35.4112L145.24 46.0121H151.794C154.452 46.0121 156.666 48.0352 156.666 50.4628ZM88.3691 154.385C88.3691 157.444 90.9059 159.981 93.9649 159.981C97.0238 159.981 99.5606 157.444 99.5606 154.385V146.924C99.5606 143.865 97.0238 141.328 93.9649 141.328C90.9059 141.328 88.3691 143.865 88.3691 146.924V154.385ZM88.3691 184.227C88.3691 187.286 90.9059 189.822 93.9649 189.822C97.0238 189.822 99.5606 187.286 99.5606 184.227V176.766C99.5606 173.707 97.0238 171.17 93.9649 171.17C90.9059 171.17 88.3691 173.707 88.3691 176.766V184.227ZM19.3493 189.825C18.9017 189.825 18.4542 189.75 18.0066 189.676L18.0063 189.676C15.0219 188.93 13.1567 185.871 13.9028 182.886L21.3638 153.042C22.1098 150.058 25.0942 148.193 28.1532 148.939C31.1376 149.685 33.0028 152.744 32.2567 155.728L24.7958 185.572C24.1243 188.109 21.886 189.825 19.3493 189.825ZM161.282 183.726C161.953 186.263 164.192 187.979 166.728 187.979C167.176 187.979 167.623 187.904 168.071 187.83L168.071 187.83C171.13 187.084 172.921 184.025 172.175 181.04L164.714 151.196C163.968 148.137 160.909 146.347 157.924 147.093C154.865 147.839 153.075 150.898 153.821 153.882L161.282 183.726ZM135.875 62.666C156.926 62.666 159.818 72.5376 160.811 81.865L164.425 116.221C164.877 120.496 163.251 124.849 159.818 128.036C156.294 131.301 151.325 133.166 146.175 133.166H133.888C123.317 133.166 121.239 127.958 119.974 124.46L118.619 121.04L118.586 120.959C116.9 116.758 116.684 116.221 110.849 116.221H77.2399C71.3745 116.221 71.0068 117.152 69.4756 121.026L69.47 121.04L68.1147 124.46L68.1033 124.49C66.7483 127.987 64.742 133.166 54.1109 133.166H41.8236C36.5834 133.166 31.7046 131.301 28.1811 128.036C24.7479 124.771 23.1216 120.496 23.5734 116.221L27.2776 81.865C28.3618 72.6153 31.1626 62.666 52.2136 62.666H135.875ZM54.7433 93.6798H74.3487C77.0592 93.6798 79.3179 91.7366 79.3179 89.4825C79.3179 87.2283 77.1495 85.2851 74.4391 85.2851H54.7433C52.1232 85.2851 49.8645 87.2283 49.8645 89.4825C49.8645 91.7366 52.0329 93.6798 54.7433 93.6798ZM113.65 93.6798H133.346C136.056 93.6798 138.225 91.7366 138.225 89.4825C138.225 87.2283 136.056 85.2851 133.346 85.2851H113.65C111.03 85.2851 108.771 87.2283 108.771 89.4825C108.771 91.7366 110.94 93.6798 113.65 93.6798Z" fill="white" fill-opacity="0.8"/>
</g>
</g>
</svg>
