<svg width="20" height="20" viewBox="0 0 20 20" fill="none" xmlns="http://www.w3.org/2000/svg">
<g id="edit">
<path id="Compo shape" fill-rule="evenodd" clip-rule="evenodd" d="M13.7989 0.752315C14.802 -0.250772 16.4283 -0.250772 17.4314 0.752315L19.2477 2.56857C20.2508 3.57165 20.2508 5.19798 19.2477 6.20107L17.6373 7.81142C17.5109 7.74882 17.3779 7.68113 17.24 7.60852C16.3118 7.11984 15.2102 6.43396 14.3882 5.61188C13.5661 4.7898 12.8802 3.68828 12.3915 2.76003C12.3189 2.6221 12.2512 2.48908 12.1886 2.36265L13.7989 0.752315ZM13.2096 6.79039C14.1824 7.76319 15.4196 8.52882 16.3994 9.04935L10.0667 15.382C9.67373 15.775 9.16389 16.0299 8.61371 16.1085L4.79958 16.6534C3.952 16.7745 3.2255 16.048 3.34658 15.2004L3.89146 11.3863C3.97006 10.8361 4.22498 10.3263 4.61796 9.93329L10.9507 3.60058C11.4712 4.58038 12.2368 5.81758 13.2096 6.79039ZM0.833333 18.3333C0.373096 18.3333 0 18.7064 0 19.1667C0 19.6269 0.373096 20 0.833333 20H19.1667C19.6269 20 20 19.6269 20 19.1667C20 18.7064 19.6269 18.3333 19.1667 18.3333H0.833333Z" fill="#4EC1C1"/>
</g>
</svg>
