<svg width="20" height="16" viewBox="0 0 20 16" fill="none" xmlns="http://www.w3.org/2000/svg">
<g id="Group">
<path id="Vector" d="M18.8235 5.64729V7.41199H17.6471V6.23552H15.8824V12.1179H17.6471V10.9414H18.8235V12.7061H20V5.64729H18.8235ZM12.0084 3.29435H10.5882V2.11788H12.3529V0.941406H5.29412V2.11788H7.05882V3.29435H5.63871L4.46224 4.47082H2.35294V7.41199H1.17647V5.64729H0V12.7061H1.17647V10.9414H2.35294V13.8826H4.70588V15.0591H10.8319L12.5966 13.2943H14.7059V5.05905H13.7731L12.0084 3.29435ZM9.36969 12.3363L8.27737 11.8994L9.13118 9.76494H6.77824L8.27737 6.01705L9.36969 6.45403L8.51588 8.58847H10.8688L9.36969 12.3363Z" fill="white"/>
</g>
</svg>
