<svg width="24" height="25" viewBox="0 0 24 25" fill="none" xmlns="http://www.w3.org/2000/svg">
<g id="icons 24px" clip-path="url(#clip0_1520_102822)">
<g id="Group">
<path id="Vector" d="M12.0008 0.5C6.90965 0.5 2.76758 4.64207 2.76758 9.73328C2.76758 14.5456 10.4313 22.8305 11.3051 23.7605L12.0008 24.5L12.6965 23.7605C13.5704 22.8313 21.2341 14.5456 21.2341 9.73328C21.2345 4.64207 17.0924 0.5 12.0008 0.5ZM12.0008 13.5543C9.89418 13.5543 8.18013 11.8402 8.18013 9.73361C8.18013 7.62693 9.89418 5.91295 12.0008 5.91295C14.1079 5.91295 15.8214 7.627 15.8214 9.73361C15.8214 11.8403 14.1079 13.5543 12.0008 13.5543Z" fill="#4EC1C1"/>
</g>
</g>
<defs>
<clipPath id="clip0_1520_102822">
<rect width="24" height="24" fill="white" transform="translate(0 0.5)"/>
</clipPath>
</defs>
</svg>
