<svg width="180" height="65" viewBox="0 0 180 65" fill="none" xmlns="http://www.w3.org/2000/svg">
<g id="logo">
<path id="Vector" d="M40.7234 31.9567H38.2023L41.5337 20.9121H45.1353L48.4667 31.9567H45.9456L45.4054 29.9651H41.3537L40.7234 31.9567ZM41.8939 27.7924H44.6851L43.4245 23.3564H43.1544L41.8939 27.7924Z" fill="#4EC1C1"/>
<path id="Vector_2" d="M50.7163 31.9567V20.9121H55.1282C57.6493 20.9121 58.5497 22.089 58.5497 23.628C58.5497 24.8049 57.9194 25.8912 56.2987 25.9818V26.2534C58.1895 26.3439 58.9098 27.3397 58.9098 28.7882C58.9098 30.5082 58.0995 32.0473 55.1282 32.0473H50.7163V31.9567ZM53.0573 29.5124H55.1282C56.1186 29.5124 56.5688 29.3314 56.5688 28.3355C56.5688 27.3397 56.1186 27.1587 55.1282 27.1587H53.0573V29.5124ZM53.0573 24.9859H54.9481C55.8485 24.9859 56.2087 24.8049 56.2087 23.9901C56.2087 23.2659 55.8485 23.0848 54.9481 23.0848H53.0573V24.9859Z" fill="#4EC1C1"/>
<path id="Vector_3" d="M61.4299 28.3359C62.9605 29.3318 65.0314 29.9655 66.472 29.9655C67.9126 29.9655 68.6329 29.7844 68.6329 28.8791C68.6329 28.0643 67.8226 27.8833 65.6617 27.3401C62.8705 26.7064 61.61 25.9822 61.61 24.081C61.61 21.7273 63.3207 20.7314 65.9318 20.7314C67.2824 20.7314 69.0831 21.0936 70.1636 21.6367V23.8094C68.5429 23.2663 66.7421 22.9042 65.7517 22.9042C64.8513 22.9042 64.041 22.9947 64.041 23.8094C64.041 24.5337 64.8513 24.7147 66.382 25.0769C69.4433 25.8011 71.064 26.2537 71.064 28.517C71.064 31.0518 69.1732 32.0476 66.5621 32.0476C65.0314 32.0476 62.6904 31.5045 61.5199 30.5992V28.3359H61.4299Z" fill="#4EC1C1"/>
<path id="Vector_4" d="M78.3563 32.1382C75.0249 32.1382 72.954 29.6939 72.954 26.4348C72.954 23.1757 74.9349 20.7314 78.3563 20.7314C81.7778 20.7314 83.7586 23.1757 83.7586 26.4348C83.7586 29.6939 81.6877 32.1382 78.3563 32.1382ZM75.3851 26.4348C75.3851 28.9696 76.6456 29.9655 78.4464 29.9655C80.2471 29.9655 81.5076 29.0602 81.5076 26.4348C81.5076 23.9 80.2471 22.9042 78.4464 22.9042C76.6456 22.9042 75.3851 23.9 75.3851 26.4348Z" fill="#4EC1C1"/>
<path id="Vector_5" d="M86.0986 31.9567V20.9121H88.4396V29.784H92.4913V31.9567H86.0986Z" fill="#4EC1C1"/>
<path id="Vector_6" d="M104.195 27.9734C104.195 30.8704 102.305 32.1378 99.4235 32.1378C96.5422 32.1378 94.6514 30.8704 94.6514 27.9734V20.9121H96.9924V27.5208C96.9924 29.1503 97.4426 29.9651 99.4235 29.9651C101.404 29.9651 101.854 29.1503 101.854 27.5208V20.9121H104.195V27.9734Z" fill="#4EC1C1"/>
<path id="Vector_7" d="M106.805 23.0848V20.9121H115.179V23.0848H112.208V31.9567H109.867V23.0848H106.805Z" fill="#4EC1C1"/>
<path id="Vector_8" d="M117.609 31.9567V20.9121H124.902V23.0848H119.95V25.2575H123.912V27.4302H119.95V29.6935H124.902V31.8662H117.609V31.9567Z" fill="#4EC1C1"/>
<path id="Vector_9" d="M137.326 31.9567H134.805L138.136 20.9121H141.738L145.069 31.9567H142.548L141.918 29.9651H137.866L137.326 31.9567ZM138.496 27.7924H141.287L140.027 23.3564H139.757L138.496 27.7924Z" fill="#4EC1C1"/>
<path id="Vector_10" d="M156.863 27.9734C156.863 30.8704 154.972 32.1378 152.091 32.1378C149.21 32.1378 147.319 30.8704 147.319 27.9734V20.9121H149.66V27.5208C149.66 29.1503 150.11 29.9651 152.091 29.9651C154.072 29.9651 154.522 29.1503 154.522 27.5208V20.9121H156.863V27.9734Z" fill="#4EC1C1"/>
<path id="Vector_11" d="M159.473 23.0848V20.9121H167.847V23.0848H164.876V31.9567H162.535V23.0848H159.473Z" fill="#4EC1C1"/>
<path id="Vector_12" d="M174.599 32.1382C171.267 32.1382 169.196 29.6939 169.196 26.4348C169.196 23.1757 171.177 20.7314 174.599 20.7314C177.93 20.7314 180.001 23.1757 180.001 26.4348C179.911 29.6939 177.93 32.1382 174.599 32.1382ZM171.537 26.4348C171.537 28.9696 172.798 29.9655 174.599 29.9655C176.309 29.9655 177.66 29.0602 177.66 26.4348C177.66 23.9 176.399 22.9042 174.599 22.9042C172.798 22.9947 171.537 23.9 171.537 26.4348Z" fill="#4EC1C1"/>
<path id="Vector_13" d="M42.0735 44.1782H41.2632L42.8839 38.8369H44.1444L45.7651 44.1782H44.9548L44.5946 42.9107H42.4337L42.0735 44.1782ZM42.6138 42.277H44.3245L43.5142 39.6517H43.4241L42.6138 42.277Z" fill="#64676B"/>
<path id="Vector_14" d="M50.5365 44.1782V38.8369H52.4273C53.5078 38.8369 53.958 39.5612 53.958 40.1949C53.958 40.738 53.7779 41.1907 52.9676 41.2812V41.3717C53.868 41.4623 54.1381 42.0054 54.1381 42.6392C54.1381 43.3634 53.6879 44.0876 52.4273 44.0876H50.5365V44.1782ZM51.2569 43.4539H52.4273C53.1477 43.4539 53.3277 43.2729 53.3277 42.6392C53.3277 41.9149 53.1477 41.7339 52.4273 41.7339H51.2569V43.4539ZM51.2569 41.0096H52.4273C52.9676 41.0096 53.2377 40.8286 53.2377 40.2854C53.2377 39.8327 53.0576 39.5611 52.4273 39.5611H51.2569V41.0096Z" fill="#64676B"/>
<path id="Vector_15" d="M58.4591 39.5611V38.8369H62.5108V39.5611H60.8901V44.1782H60.0797V39.5611H58.4591Z" fill="#64676B"/>
<path id="Vector_16" d="M69.2629 44.2687C67.6423 44.2687 66.6518 43.0918 66.6518 41.5528C66.6518 40.0138 67.6423 38.8369 69.2629 38.8369C70.8836 38.8369 71.874 40.0138 71.874 41.5528C71.874 43.0918 70.8836 44.2687 69.2629 44.2687ZM67.4622 41.5528C67.4622 43.0013 68.1825 43.5445 69.2629 43.5445C70.2534 43.5445 71.0637 43.0013 71.0637 41.5528C71.0637 40.1043 70.2534 39.5611 69.2629 39.5611C68.2725 39.5611 67.4622 40.0138 67.4622 41.5528Z" fill="#64676B"/>
<path id="Vector_17" d="M77.1855 42.3678C77.1855 43.1825 77.4556 43.5447 78.2659 43.5447C79.0763 43.5447 79.3464 43.1825 79.3464 42.6394C79.3464 42.0057 78.9862 41.8246 78.1759 41.8246H77.7257V41.1004H78.1759C78.9862 41.1004 79.2563 40.8288 79.2563 40.2856C79.2563 39.9235 78.9862 39.4708 78.356 39.4708C77.5456 39.4708 77.2755 39.8329 77.2755 40.5572H76.4652C76.4652 39.6519 76.9153 38.7466 78.356 38.7466C79.6165 38.7466 80.0667 39.5614 80.0667 40.1951C80.0667 40.7382 79.8866 41.1909 79.0763 41.3719V41.4625C79.9767 41.553 80.2468 42.0962 80.2468 42.7299C80.2468 43.4541 79.7966 44.2689 78.356 44.2689C76.9153 44.2689 76.4652 43.3636 76.4652 42.3678H77.1855Z" fill="#64676B"/>
<path id="Vector_18" d="M85.4683 44.1782H84.6579L86.2786 38.8369H87.5392L89.1598 44.1782H88.3495L87.9894 42.9107H85.8284L85.4683 44.1782ZM86.0085 42.277H87.7192L86.9089 39.6517H86.8189L86.0085 42.277Z" fill="#64676B"/>
<path id="Vector_19" d="M93.8412 38.9277H98.253V44.269H97.4427V39.652H94.5615V44.269H93.7511V38.9277H93.8412Z" fill="#64676B"/>
<path id="Vector_20" d="M106.446 44.1782V42.0054H105.095C103.204 42.0054 103.024 40.738 103.024 38.8369H103.834C103.834 40.738 103.924 41.2812 105.185 41.2812H106.536V38.8369H107.346V44.1782H106.446Z" fill="#64676B"/>
<path id="Vector_21" d="M112.747 44.1782H111.937L113.558 38.8369H114.818L116.439 44.1782H115.629L115.268 42.9107H113.108L112.747 44.1782ZM113.378 42.277H115.088L114.278 39.6517H114.188L113.378 42.277Z" fill="#64676B"/>
<path id="Vector_22" d="M120.85 41.5528C120.85 40.1043 121.48 38.8369 123.191 38.8369C124.632 38.8369 125.352 39.7422 125.442 40.9191H124.632C124.541 40.0138 124.271 39.5611 123.191 39.5611C122.11 39.5611 121.66 40.1949 121.66 41.5528C121.66 43.0013 122.11 43.5445 123.191 43.5445C124.271 43.5445 124.541 43.0918 124.632 42.1865H125.442C125.352 43.3634 124.632 44.2687 123.191 44.2687C121.48 44.2687 120.85 42.9107 120.85 41.5528Z" fill="#64676B"/>
<path id="Vector_23" d="M129.853 39.5611V38.8369H133.905V39.5611H132.284V44.1782H131.474V39.5611H129.853Z" fill="#64676B"/>
<path id="Vector_24" d="M142.007 38.9277H142.818V44.269H142.007V40.4667H141.917L139.396 44.269H138.586V38.9277H139.396V42.6394H139.486L142.007 38.9277Z" fill="#64676B"/>
<path id="Vector_25" d="M33.8806 0.360942L37.6622 0.090332C37.302 0.090332 36.8518 0.180534 36.4917 0.180534C36.4016 0.180534 36.4016 0.180534 36.3116 0.180534C36.3116 0.180534 36.3116 0.180534 36.2215 0.180534C35.6813 0.270738 34.871 0.360942 33.8806 0.360942Z" fill="#6D7080"/>
<path id="Vector_26" d="M37.1217 0.451892C37.2118 0.451892 37.3918 0.361687 37.4819 0.361687C37.5719 0.361687 37.752 0.271484 37.842 0.271484C37.5719 0.271484 37.3018 0.361689 37.1217 0.451892Z" fill="#6D7080"/>
<path id="Vector_27" d="M36.7618 0.542969C36.6718 0.542969 36.4917 0.633171 36.4017 0.633171C36.4917 0.633171 36.5818 0.542969 36.7618 0.542969Z" fill="#6D7080"/>
<path id="Vector_28" d="M29.8295 4.70752C29.6494 4.88858 29.3793 5.16017 29.1992 5.34123C29.3793 5.16017 29.5594 4.88858 29.8295 4.70752Z" fill="#2B2C33"/>
<path id="Vector_29" d="M27.8487 58.8442C27.9388 58.9344 27.9388 59.0246 28.0288 59.1148C27.9388 59.0246 27.8487 58.9344 27.8487 58.8442Z" fill="#6D7080"/>
<path id="Vector_30" d="M26.4982 8.69044C26.5883 8.50938 26.6783 8.32832 26.8584 8.23779C26.6783 8.41885 26.5883 8.59991 26.4082 8.8715C26.4982 8.78097 26.4982 8.69044 26.4982 8.69044Z" fill="#6D7080"/>
<path id="Vector_31" d="M25.9578 9.50549C26.1379 9.2339 26.2279 9.05284 26.408 8.78125C26.1379 9.14337 25.9578 9.50549 25.7778 9.77708C25.8678 9.68655 25.9578 9.59602 25.9578 9.50549Z" fill="#6D7080"/>
<path id="Vector_32" d="M25.4179 10.4107C25.5079 10.2296 25.598 10.1391 25.688 9.95801C25.5079 10.3201 25.2378 10.6822 25.0577 11.0444C25.2378 10.7728 25.3278 10.5917 25.4179 10.4107Z" fill="#6D7080"/>
<path id="Vector_33" d="M23.7974 13.5795C23.7974 13.489 23.8874 13.489 23.8874 13.3984C23.7073 13.7606 23.5273 14.2132 23.3472 14.5753C23.5273 14.3037 23.6173 13.9416 23.7974 13.5795Z" fill="#6D7080"/>
<path id="Vector_34" d="M23.3472 14.5752C23.1671 15.0278 22.987 15.4805 22.8069 15.8426C22.8069 15.7521 22.897 15.6615 22.897 15.571C23.0771 15.2994 23.2571 14.9373 23.3472 14.5752Z" fill="#6D7080"/>
<path id="Vector_35" d="M21.0963 21.7271C21.0062 22.0892 20.9162 22.5418 20.8262 22.9039C20.9162 22.5418 21.0062 22.1797 21.0963 21.7271Z" fill="#6D7080"/>
<path id="Vector_36" d="M20.5563 41.1001C20.5563 41.3717 20.6463 41.5527 20.6463 41.8243C20.6463 41.6433 20.5563 41.4622 20.5563 41.2812C20.5563 41.2812 20.5563 41.1906 20.5563 41.1001Z" fill="#6D7080"/>
<path id="Vector_37" d="M20.376 25.9818C20.466 25.5291 20.466 25.167 20.5561 24.7144C20.466 25.2575 20.376 25.7102 20.376 26.2534C20.376 26.1628 20.376 26.0723 20.376 25.9818Z" fill="#6D7080"/>
<path id="Vector_38" d="M20.1962 27.2497C20.1962 26.8876 20.2862 26.5255 20.2862 26.2539C20.1962 26.616 20.1962 27.0687 20.1061 27.4308C20.1962 27.3403 20.1962 27.2497 20.1962 27.2497Z" fill="#6D7080"/>
<path id="Vector_39" d="M19.6558 1.35724C21.6366 1.26671 23.7075 1.08565 25.6883 0.995117C25.5083 0.995117 25.2381 1.08565 25.0581 1.08565C24.878 1.08565 24.6079 1.17618 24.4278 1.17618C24.2477 1.26671 23.9776 1.26671 23.7975 1.35724C23.6175 1.44777 23.3473 1.44776 23.1673 1.53829C22.8971 1.2667 22.0868 1.26671 19.4757 1.35724H19.5657C19.4757 1.35724 19.5657 1.35724 19.6558 1.35724Z" fill="#64676B"/>
<path id="Vector_40" d="M17.2249 64.0947C18.2153 64.1853 19.3858 64.2758 20.6464 64.4568C19.836 64.3663 18.7556 64.3663 17.9452 64.2758C17.8552 64.2758 17.7651 64.2758 17.6751 64.2758C17.5851 64.2758 17.5851 64.2758 17.495 64.2758C17.405 64.0947 17.315 64.0947 17.2249 64.0947Z" fill="#64676B"/>
<path id="Vector_41" d="M19.1161 3.44001C18.846 2.71577 17.6755 2.44418 15.1544 2.44418C15.4245 2.35365 15.6947 2.26312 15.8747 2.17259C16.1448 2.08206 16.415 1.99153 16.595 1.901C16.8652 1.81047 17.1353 1.71994 17.3153 1.71994C17.4054 1.71994 18.0145 1.53888 18.1045 1.53888C18.1945 1.53888 17.9699 1.62941 18.0599 1.53888C18.1499 1.53888 18.1353 1.53888 18.1257 1.53888H18.2157C20.4667 1.44836 21.7272 1.53889 21.5471 2.08206C21.3671 2.17259 21.5931 2.08206 21.5471 2.08206C21.3671 2.17259 21.5534 2.08386 21.5471 2.08206C21.3671 2.17259 19.3862 3.34948 19.1161 3.44001C19.2962 3.25895 19.0261 3.53054 19.1161 3.44001Z" fill="#64676B"/>
<path id="Vector_42" d="M15.5146 6.51767C15.0644 5.34078 13.8039 4.79761 11.2828 4.70708C11.4629 4.61655 11.5529 4.43549 11.733 4.34496C11.8231 4.25443 11.9131 4.25443 12.0031 4.1639C12.2732 3.98284 12.4533 3.89231 12.7234 3.71125C12.8135 3.62072 12.9035 3.62072 12.9936 3.53019C13.0836 3.43966 13.2648 3.35927 13.4437 3.2586C13.7182 3.10421 13.8939 2.98701 14.164 2.89648H14.2541C15.7847 2.89648 17.8556 3.07754 17.7656 4.43549C17.5855 4.61655 17.4054 4.70708 17.2253 4.88814C17.0453 5.0692 16.8652 5.25026 16.6851 5.43132C16.505 5.61237 16.325 5.79343 16.1449 5.97449C15.8748 6.06502 15.6947 6.24608 15.5146 6.51767Z" fill="#64676B"/>
<path id="Vector_43" d="M25.4178 2.98737C25.5979 2.89684 25.7779 2.71578 26.048 2.62525C26.2281 2.53472 26.4081 2.35367 26.6782 2.26314C26.8583 2.17261 27.0383 2.08207 27.3084 1.99154C27.4885 1.90102 27.6686 1.81049 27.9387 1.71996C30.9997 0.90519 35.051 0.543073 38.2921 0.271484C38.2021 0.271484 38.022 0.362013 37.932 0.362013C37.842 0.362013 37.6619 0.452544 37.5719 0.452544C37.4819 0.452544 37.3018 0.543072 37.2118 0.543072C37.1217 0.543072 36.9417 0.633601 36.8517 0.633601C36.7616 0.633601 36.5816 0.724132 36.4915 0.724132C36.4015 0.814662 36.2214 0.814661 36.1314 0.814661C35.8613 0.90519 35.5912 0.995719 35.4112 1.08625C31.2698 1.44837 28.1187 2.08208 25.4178 2.98737Z" fill="#64676B"/>
<path id="Vector_44" d="M23.9773 3.98287C26.4081 2.89652 30.0093 1.99122 34.1507 1.53857C33.8806 1.6291 33.7006 1.81016 33.4305 1.90069C33.1604 2.08175 32.9803 2.17228 32.7102 2.35334C32.4401 2.5344 32.2601 2.62493 31.99 2.80599L31.9 2.89652C31.7199 2.98705 31.5398 3.16811 31.3598 3.34917C27.6685 3.89234 24.5175 4.79764 21.8166 6.06505C21.9966 5.884 22.1767 5.70294 22.3567 5.52188C22.5368 5.34082 22.7169 5.15976 22.8969 4.9787C23.077 4.79764 23.257 4.61658 23.4371 4.43552C23.6172 4.25446 23.7972 4.16393 23.9773 3.98287Z" fill="#64676B"/>
<path id="Vector_45" d="M21.9975 18.2866C21.9975 18.3772 21.9075 18.5582 21.9075 18.6487C21.9075 18.7393 21.8174 18.8298 21.8174 18.9203C21.7274 19.1014 21.7274 19.1919 21.6374 19.373C21.5473 19.554 21.5473 19.7351 21.4573 19.9162V20.0067C21.3672 20.1877 21.3672 20.3688 21.3672 20.4593C21.2772 20.6404 21.2772 20.8214 21.1872 21.093C21.0971 21.2741 21.0971 21.4552 21.0071 21.7267C20.917 22.0889 20.827 22.5415 20.737 22.9036C17.4956 23.7184 14.7944 25.3479 12.9036 27.7922C12.9036 27.4301 12.9937 27.068 12.9937 26.7059C12.9937 26.3438 13.0837 25.9816 13.1738 25.6195C13.2638 25.2574 13.2638 24.8953 13.3538 24.6237C13.4439 24.2616 13.4439 23.8995 13.5339 23.6279C14.9745 21.6362 17.9458 19.1919 21.9975 18.2866Z" fill="#64676B"/>
<path id="Vector_46" d="M20.5561 7.51366C22.8969 5.97465 26.5881 4.70724 30.4594 4.16406C30.2794 4.34512 30.0093 4.52618 29.8292 4.79777C29.6492 4.97883 29.3791 5.25042 29.199 5.43148C29.019 5.61254 28.7489 5.88413 28.5688 6.15571C28.3887 6.4273 28.2087 6.60836 27.9386 6.87995C24.3374 7.51366 21.2763 8.60001 18.6655 10.3201C18.8455 10.0485 18.9356 9.86743 19.1156 9.59584C19.2957 9.32425 19.3857 9.14319 19.5658 8.8716C19.7458 8.60001 19.8359 8.41895 20.0159 8.23789C20.196 7.87578 20.376 7.69472 20.5561 7.51366Z" fill="#64676B"/>
<path id="Vector_47" d="M22.7169 61.5602C24.8777 63.2803 27.1284 64.4571 29.6493 65.0003L28.2088 64.9098C25.778 64.4571 23.4372 63.2803 21.2764 61.4697C19.1157 59.7496 17.2251 57.3958 15.5145 54.4989C13.894 51.6925 12.5435 48.3429 11.6432 44.7217C10.7429 41.01 10.2027 37.0267 10.2027 32.8623C10.2027 28.4264 10.7429 24.1715 11.8233 20.3692C12.8136 16.567 14.3441 13.1269 16.1447 10.2299C17.9453 7.33298 20.1061 5.06974 22.4468 3.44021C24.6076 1.90121 26.9484 0.99591 29.4692 0.724321C29.5592 0.724321 29.5592 0.724321 29.5592 0.724321L30.6396 0.633789C30.8197 0.633789 31.0898 0.633789 31.2698 0.633789C28.6589 0.814848 26.2281 1.81067 23.8873 3.34968C21.5465 4.97921 19.3858 7.33298 17.5852 10.2299C15.7846 13.1269 14.2541 16.567 13.2637 20.3692C12.2734 24.262 11.6432 28.4264 11.6432 32.8623C11.6432 37.0267 12.1834 41.1005 13.0837 44.7217C13.984 48.3429 15.3344 51.6925 16.955 54.5894C18.6656 57.3958 20.5562 59.7496 22.7169 61.5602Z" fill="#64676B"/>
<path id="Vector_48" d="M20.1958 61.3787C22.3565 63.0988 24.6973 64.2757 27.1281 64.8189L25.6876 64.7284C23.2568 64.2757 20.916 63.0988 18.7553 61.3787C16.5946 59.6587 14.6139 57.3049 12.9934 54.4985C11.3728 51.6921 10.0224 48.3425 9.12206 44.7213C8.22176 41.1001 7.68158 37.1168 7.68158 32.9525C7.68158 28.5165 8.22176 24.3521 9.30212 20.5499C10.2925 16.7477 11.823 13.3075 13.6236 10.4106C15.4242 7.60418 17.5849 5.25041 19.9257 3.62087C22.2665 1.99134 24.7873 1.08604 27.3982 0.904985C27.7583 0.904985 28.1185 0.814453 28.4786 0.814453C28.4786 0.814453 28.4786 0.814453 28.5686 0.814453C26.0478 0.995512 23.6169 1.99134 21.3662 3.53034C19.0254 5.15987 16.8647 7.51364 15.0641 10.3201C13.2635 13.217 11.7329 16.6571 10.7426 20.4594C9.66225 24.2616 9.12206 28.5165 9.12206 32.9525C9.12206 37.1168 9.66224 41.1001 10.5625 44.7213C11.4629 48.3425 12.8133 51.6921 14.4339 54.4985C16.0544 57.3049 18.0351 59.6587 20.1958 61.3787Z" fill="#64676B"/>
<path id="Vector_49" d="M5.07101 11.859C5.16105 11.7685 5.16104 11.6779 5.25108 11.5874C5.16104 11.7685 4.98097 12.0401 4.89093 12.2211C4.89093 12.1306 4.98097 11.9495 5.07101 11.859Z" fill="#6D7080"/>
<path id="Vector_50" d="M1.83009 19.1922H1.92013C5.43162 20.0069 6.7822 22.5418 7.32243 23.9902C7.23239 24.3524 7.23239 24.6239 7.14235 24.9861C7.05232 25.3482 7.05231 25.7103 6.96227 25.9819C6.87223 26.344 6.87224 26.7061 6.87224 27.0682C6.7822 27.4304 6.7822 27.7925 6.7822 28.1546C4.80136 24.9861 2.37032 24.0808 0.749634 23.7186C0.839672 23.4471 0.839673 23.1755 0.929711 22.9944C1.01975 22.7228 1.01975 22.5418 1.10978 22.3607C1.10978 22.2702 1.19983 22.1797 1.19983 22.0891C1.28986 21.6365 1.3799 21.2744 1.55998 20.8217C1.65001 20.3691 1.83009 19.9164 1.92013 19.4638C1.83009 19.1922 1.83009 19.1922 1.83009 19.1922Z" fill="#64676B"/>
<path id="Vector_51" d="M43.6939 0.361795C44.9544 0.723913 46.6649 1.44815 48.5556 2.53451C50.3562 3.62086 51.7066 4.88828 52.6069 5.8841C53.3272 6.69887 54.0474 7.51363 54.7677 8.50946C56.5683 10.9538 57.8287 13.3981 58.639 15.4802C57.9187 15.4802 57.1985 15.4802 56.3882 15.4802C56.0281 14.4844 52.3368 4.97881 44.8643 4.07351C41.083 3.62086 38.112 5.43145 37.1217 6.06516C23.7972 14.4844 22.5368 48.252 35.6812 57.667C36.5815 58.3007 39.9127 60.745 43.964 60.2019C51.0764 59.2966 54.5876 50.4247 54.8577 49.5194L56.2982 53.7743C55.938 55.4943 50.8063 63.0083 43.964 64.6378C37.4818 66.0863 31.99 62.0125 28.5688 58.0292C23.9773 52.7784 17.9453 36.5736 22.8069 19.1014C27.6685 1.62921 38.7423 -0.72456 43.6939 0.361795Z" fill="#4EC1C1"/>
<path id="Vector_52" d="M54.8578 49.4292C83.8476 49.4292 112.837 49.4292 141.827 49.4292C112.837 50.8777 83.8476 52.3261 54.8578 53.7746C54.9478 52.9599 54.9478 52.0546 54.9478 51.0587C54.9478 50.5156 54.9478 49.9724 54.8578 49.4292Z" fill="#4EC1C1"/>
<path id="Vector_53" d="M51.8868 15.4805C53.0572 15.4805 54.3176 15.39 55.488 15.39C53.4173 9.14347 48.9158 4.88858 44.1442 4.70752C43.0638 4.70752 41.4433 4.79805 39.5527 5.79388C40.7231 5.79388 43.694 5.97494 46.665 7.96659C50.4463 10.5014 51.6167 14.3942 51.8868 15.4805Z" fill="#64676B"/>
<path id="Vector_54" d="M53.417 49.4292C52.1566 49.4292 50.9862 49.4292 49.7257 49.4292C49.3656 50.6061 48.6454 52.5072 46.8448 54.3178C43.5137 57.6674 39.2822 57.7579 38.2919 57.7579C40.2726 58.7537 41.9831 58.8443 42.9735 58.7537C47.385 58.6632 51.4363 54.861 53.417 49.4292Z" fill="#64676B"/>
<path id="Vector_55" d="M56.4783 15.3901C72.3237 15.3901 88.169 15.3901 104.014 15.3901C88.079 14.3038 72.0536 13.1269 56.1182 12.0405" fill="#4EC1C1"/>
<path id="Vector_56" d="M42.7935 64.7289C57.3784 62.013 71.9633 59.2066 86.5482 56.4907C74.7542 57.5771 62.8702 58.754 51.0762 59.8403" fill="#4EC1C1"/>
<path id="Vector_57" d="M53.6871 56.8526C70.7029 55.3136 87.7186 53.7746 104.734 52.145C87.9887 53.0503 71.2431 53.8651 54.4974 54.7704" fill="#4EC1C1"/>
<path id="Vector_58" d="M56.3883 11.2252L84.8379 13.3979L54.4077 10.0483" fill="#4EC1C1"/>
<path id="Subtract" fill-rule="evenodd" clip-rule="evenodd" d="M26.9669 7.82548C26.962 7.81255 26.9562 7.79912 26.9492 7.78516C23.2576 8.41886 19.7462 10.0484 17.4952 11.9495C17.4052 12.0853 17.3376 12.2211 17.2701 12.3569C17.2026 12.4927 17.135 12.6285 17.045 12.7643C17 12.9001 16.9325 13.0359 16.8649 13.1717C16.7974 13.3075 16.7299 13.4433 16.6848 13.5791C16.6398 13.7148 16.5723 13.8506 16.5048 13.9864C16.4372 14.1222 16.3697 14.258 16.3247 14.3938C16.2797 14.5296 16.2121 14.6654 16.1446 14.8012C16.0771 14.937 16.0096 15.0728 15.9645 15.2086C18.4586 13.2383 21.3051 11.9768 24.7656 11.2488C25.4621 9.97302 26.2004 8.83623 26.9669 7.82548Z" fill="#64676B"/>
<path id="Subtract_2" fill-rule="evenodd" clip-rule="evenodd" d="M24.2159 12.6807C20.6268 13.4092 17.3091 15.2157 15.2444 17.4722C15.1994 17.608 15.1543 17.7664 15.1093 17.9249C15.0643 18.0833 15.0193 18.2417 14.9743 18.3775C14.9292 18.5133 14.8842 18.6717 14.8392 18.8301C14.7942 18.9886 14.7492 19.147 14.7041 19.2828C14.6591 19.4639 14.6141 19.6223 14.5691 19.7807C14.5241 19.9391 14.479 20.0976 14.434 20.2786C14.389 20.4597 14.344 20.6181 14.299 20.7765C14.2539 20.935 14.2089 21.0934 14.1639 21.2745C16.4149 19.0112 19.116 17.4722 22.5375 16.748L22.8076 15.9332C22.8076 15.8879 22.8301 15.8427 22.8526 15.7974C22.8751 15.7521 22.8976 15.7069 22.8976 15.6616C22.9606 15.5667 23.0125 15.4606 23.0612 15.3474C23.3297 14.6547 23.6091 13.9919 23.8981 13.3581C23.906 13.324 23.92 13.29 23.9449 13.2559C24.0343 13.0614 24.1247 12.8697 24.2159 12.6807Z" fill="#64676B"/>
<path id="Subtract_3" fill-rule="evenodd" clip-rule="evenodd" d="M20.5417 24.7178C16.5883 25.6263 13.8927 28.2477 12.8136 30.4177V31.0514V31.6851V32.3188V32.9525V33.4051V33.9483V34.401V34.8536C15.3004 31.0137 18.751 30.0807 19.9677 29.7954C20.0714 28.1313 20.2587 26.4356 20.5417 24.7178Z" fill="#64676B"/>
<path id="Subtract_4" fill-rule="evenodd" clip-rule="evenodd" d="M19.8845 31.6956C16.1277 32.6116 13.801 35.4049 12.9937 37.4794C12.9937 37.6604 13.0162 37.8415 13.0387 38.0225C13.0612 38.2036 13.0837 38.3847 13.0837 38.5657V38.5657C13.0837 38.9278 13.0837 39.29 13.1738 39.6521C13.2216 39.7963 13.244 39.9661 13.268 40.1479C13.2892 40.3083 13.3116 40.4781 13.3538 40.6479C13.4439 41.01 13.4439 41.3721 13.4439 41.5532C14.7945 39.1994 16.9554 37.5699 19.9266 36.8457V36.393V35.8498V35.7593V35.4711C19.8682 34.2373 19.8522 32.9773 19.8845 31.6956Z" fill="#64676B"/>
<path id="Subtract_5" fill-rule="evenodd" clip-rule="evenodd" d="M20.1852 38.749C16.5007 39.6567 14.5233 42.1883 13.9836 44.0875C14.0286 44.2686 14.0737 44.427 14.1187 44.5855C14.1637 44.7439 14.2087 44.9023 14.2537 45.0834C14.2988 45.2644 14.3438 45.4229 14.3888 45.5813C14.4338 45.7397 14.4788 45.8981 14.5239 46.0792C14.5689 46.215 14.6139 46.3734 14.6589 46.5318C14.7039 46.6903 14.749 46.8487 14.794 46.9845C14.839 47.1203 14.884 47.2787 14.929 47.4371C14.974 47.5956 15.0191 47.754 15.0641 47.8898C16.1412 45.7238 18.1132 44.3675 20.98 43.7313C20.9138 43.4157 20.85 43.097 20.7889 42.7752C20.7365 42.6997 20.7365 42.6241 20.7365 42.5485V42.5485C20.7365 42.5276 20.736 42.5072 20.735 42.4873C20.5127 41.2809 20.327 40.0328 20.1852 38.749Z" fill="#64676B"/>
<path id="Subtract_6" fill-rule="evenodd" clip-rule="evenodd" d="M21.3838 45.4995C17.9593 46.2768 16.4063 48.4737 16.0547 50.1529C16.0998 50.2887 16.1673 50.4245 16.2348 50.5602C16.3023 50.696 16.3699 50.8318 16.4149 50.9676C16.4599 51.1034 16.5274 51.2392 16.595 51.375C16.6625 51.5108 16.73 51.6466 16.775 51.7824C16.8201 51.9182 16.8876 52.054 16.9551 52.1898C17.0226 52.3256 17.0902 52.4614 17.1352 52.5972C17.2252 52.8688 17.3153 53.1403 17.4954 53.4119C18.2866 51.644 20.0221 50.4803 22.7019 49.9208C22.2177 48.5474 21.7717 47.0684 21.3838 45.4995Z" fill="#64676B"/>
<path id="Subtract_7" fill-rule="evenodd" clip-rule="evenodd" d="M23.2463 51.3813C20.1974 51.9795 18.7502 53.7292 18.5754 55.223C18.6654 55.3588 18.7329 55.472 18.8005 55.5851C18.868 55.6983 18.9355 55.8115 19.0256 55.9473C19.0966 56.0544 19.1536 56.1615 19.2077 56.2631C19.2907 56.419 19.3667 56.5619 19.4758 56.6715C19.5658 56.8526 19.7459 57.1241 19.926 57.3052C20.016 57.4863 20.1961 57.7578 20.3761 57.9389C20.7238 56.9775 21.9107 55.6787 24.9898 55.1827C24.389 54.0601 23.7994 52.7863 23.2463 51.3813Z" fill="#64676B"/>
<path id="Subtract_8" fill-rule="evenodd" clip-rule="evenodd" d="M25.7712 56.5491C22.8818 57.0578 21.6363 58.4384 21.6363 59.5685L22.1766 60.1117L22.7168 60.6549L23.257 61.1981C23.3471 61.2886 23.4371 61.3565 23.5271 61.4244C23.6172 61.4923 23.7072 61.5602 23.7973 61.6507C23.9731 61.0318 24.9221 59.981 28.1544 59.6793C27.9079 59.4123 27.6704 59.1439 27.4421 58.876C26.8985 58.2495 26.3347 57.4685 25.7712 56.5491Z" fill="#64676B"/>
<path id="Subtract_9" fill-rule="evenodd" clip-rule="evenodd" d="M29.0218 60.5757C26.0929 60.7875 24.9695 61.8474 25.0578 62.6462C25.2273 62.703 25.3614 62.7955 25.4823 62.8789C25.554 62.9284 25.621 62.9746 25.688 63.0083C25.8576 63.0651 25.9917 63.1576 26.1125 63.241C26.1842 63.2905 26.2513 63.3367 26.3183 63.3704C26.4559 63.5087 26.646 63.5942 26.8084 63.6672C26.8585 63.6898 26.9061 63.7112 26.9486 63.7325C27.0386 63.7778 27.1512 63.8231 27.2637 63.8683C27.3762 63.9136 27.4888 63.9589 27.5788 64.0041C27.7587 63.7329 28.4773 63.0102 31.7973 62.9181C31.7264 62.8677 31.6559 62.8169 31.5857 62.7657C31.4507 62.6727 31.3222 62.5798 31.2127 62.4868C30.4307 61.8886 29.6987 61.2424 29.0218 60.5757Z" fill="#64676B"/>
<path id="Subtract_10" fill-rule="evenodd" clip-rule="evenodd" d="M32.759 63.5596C30.035 63.6748 28.8461 64.2851 29.1092 64.6378C29.1347 64.6378 29.2616 64.6669 29.4345 64.7066C29.8711 64.8067 30.6009 64.9742 30.7299 64.9094C31.7563 64.9637 32.7827 64.9202 33.8092 64.8768C34.2752 64.857 34.7412 64.8373 35.2072 64.8267C34.3543 64.4746 33.5368 64.045 32.759 63.5596ZM30.4725 64.8534C30.4182 64.8358 30.3617 64.8205 30.2916 64.819C30.332 64.8267 30.3726 64.8344 30.412 64.8419C30.4326 64.8458 30.4528 64.8496 30.4725 64.8534ZM30.1603 64.7935C30.1405 64.7873 30.1201 64.7804 30.0996 64.7736C30.0321 64.7509 29.9645 64.7283 29.9195 64.7283C29.8465 64.7283 29.9808 64.7581 30.1603 64.7935Z" fill="#64676B"/>
<path id="Subtract_11" fill-rule="evenodd" clip-rule="evenodd" d="M0.209926 37.0729C2.00253 37.547 4.53908 38.5822 7.41246 41.7339C7.36463 41.5896 7.34221 41.4198 7.31821 41.2381C7.29702 41.0776 7.2746 40.9078 7.23238 40.738C7.18456 40.5938 7.16214 40.424 7.13813 40.2422C7.11694 40.0818 7.09452 39.912 7.0523 39.7422C7.00728 39.5611 6.98477 39.3801 6.96226 39.199C6.93975 39.018 6.91725 38.8369 6.87223 38.6558C6.87223 38.4748 6.84972 38.2937 6.82721 38.1127C6.8047 37.9316 6.78219 37.7506 6.78219 37.5695C5.97673 36.2197 3.74797 33.0811 0.00749931 32.0654C0.00254914 32.3303 6.10352e-05 32.5958 6.10352e-05 32.8621C6.10352e-05 34.2872 0.0713472 35.6924 0.209926 37.0729Z" fill="#64676B"/>
<path id="Subtract_12" fill-rule="evenodd" clip-rule="evenodd" d="M14.1459 62.9611C13.897 62.7763 13.6504 62.5875 13.4064 62.3945C15.2493 62.6475 15.4347 62.6844 22.9872 64.1856C23.0322 64.1856 23.0997 64.2082 23.1673 64.2308C23.2348 64.2535 23.3023 64.2761 23.3473 64.2761C23.3923 64.2761 23.4599 64.2987 23.5274 64.3214C23.5949 64.344 23.6624 64.3666 23.7074 64.3666C23.7525 64.3666 23.82 64.3893 23.8875 64.4119C23.955 64.4345 24.0226 64.4572 24.0676 64.4572C24.1126 64.4572 24.1801 64.4798 24.2476 64.5024C24.3057 64.5219 24.3638 64.5414 24.4075 64.5464L22.9872 64.4572C22.2069 64.3666 21.4267 64.266 20.6464 64.1655C19.0859 63.9643 17.5254 63.7631 15.9648 63.6424C15.9615 63.6424 15.9583 63.6424 15.9552 63.6424C15.8747 63.6425 15.8694 63.6425 15.6948 63.5519C15.6047 63.5066 15.5147 63.484 15.4247 63.4613C15.3346 63.4387 15.2446 63.4161 15.1546 63.3708C15.0195 63.3255 14.907 63.2803 14.7944 63.235C14.6819 63.1898 14.5694 63.1445 14.4343 63.0992C14.3279 63.0635 14.2354 63.0138 14.1459 62.9611ZM24.4075 64.5464C24.4147 64.5473 24.4214 64.5477 24.4277 64.5477L24.4075 64.5464Z" fill="#64676B"/>
<path id="Subtract_13" fill-rule="evenodd" clip-rule="evenodd" d="M12.6782 61.8001C11.905 61.1496 11.1588 60.4575 10.442 59.7266C11.8976 60.005 14.6835 60.631 19.1154 62.2842C19.1824 62.3179 19.2494 62.3641 19.3211 62.4136C19.442 62.4969 19.576 62.5894 19.7456 62.6463C19.8126 62.68 19.8797 62.7262 19.9513 62.7757C20.0722 62.8591 20.2063 62.9516 20.3758 63.0084C20.4183 63.0298 20.4658 63.0511 20.516 63.0737C20.6784 63.1467 20.8685 63.2322 21.006 63.3705C21.096 63.4158 21.2086 63.461 21.3211 63.5063C21.4337 63.5516 21.5462 63.5968 21.6362 63.6421C18.1905 62.7759 15.6514 62.2412 12.6782 61.8001Z" fill="#64676B"/>
<path id="Subtract_14" fill-rule="evenodd" clip-rule="evenodd" d="M6.06142 55.6758H6.06123L6.06182 55.6764C6.06169 55.6762 6.06155 55.676 6.06142 55.6758ZM9.41389 58.7549C11.9471 59.2801 14.3809 59.9959 17.6751 61.2886C17.4951 61.1076 17.315 61.017 16.9549 60.836L16.9549 60.836L16.4147 60.2928L15.8745 59.7496L15.3344 59.2064C13.687 58.2954 10.5325 56.7023 7.11177 55.8831C7.83386 56.8896 8.60256 57.8484 9.41389 58.7549Z" fill="#64676B"/>
<path id="Subtract_15" fill-rule="evenodd" clip-rule="evenodd" d="M6.38079 54.6984C8.22319 55.1234 10.7575 55.9372 14.2548 57.8483C14.0748 57.5767 13.8947 57.3956 13.5345 57.124C13.484 57.0224 13.405 56.9207 13.3136 56.803C13.2423 56.7111 13.1633 56.6094 13.0844 56.4903C12.9943 56.3545 12.9268 56.2414 12.8593 56.1282C12.7917 56.015 12.7242 55.9019 12.6342 55.7661C12.5441 55.6303 12.4766 55.5171 12.4091 55.404C12.3415 55.2908 12.274 55.1776 12.184 55.0418C10.6722 53.8596 7.75035 51.9685 4.22217 50.9849C4.87588 52.2779 5.59736 53.5179 6.38079 54.6984Z" fill="#64676B"/>
<path id="Subtract_16" fill-rule="evenodd" clip-rule="evenodd" d="M3.55506 49.5947C5.3643 50.0475 7.98064 51.0283 11.284 53.3217C11.194 53.1859 11.1265 53.0501 11.0589 52.9143C10.9914 52.7785 10.9239 52.6427 10.8338 52.5069C10.7888 52.3711 10.7213 52.2353 10.6538 52.0995C10.5862 51.9637 10.5187 51.8279 10.4737 51.6921C10.4287 51.5563 10.3611 51.4206 10.2936 51.2848C10.2261 51.149 10.1586 51.0132 10.1135 50.8774C10.0235 50.6058 9.84342 50.3342 9.66335 50.0626C8.53879 49.0189 5.66896 46.4711 1.93216 45.3896C2.39688 46.8389 2.93989 48.243 3.55506 49.5947Z" fill="#64676B"/>
<path id="Subtract_17" fill-rule="evenodd" clip-rule="evenodd" d="M1.39849 43.5776C3.1856 44.072 5.71663 45.061 8.8529 47.7994C8.80788 47.6636 8.76286 47.5052 8.71784 47.3468C8.67282 47.1883 8.62781 47.0299 8.58279 46.8941C8.53777 46.7583 8.49275 46.5999 8.44773 46.4415C8.40271 46.2831 8.35769 46.1246 8.31267 45.9888C8.22263 45.7172 8.1326 45.4457 8.04256 45.0835C7.99754 44.9025 7.95252 44.744 7.9075 44.5856C7.86248 44.4272 7.81746 44.2688 7.77244 44.0877C6.80131 42.845 4.18543 39.9485 0.434082 38.8974C0.666809 40.4969 0.990454 42.0594 1.39849 43.5776Z" fill="#64676B"/>
<path id="Subtract_18" fill-rule="evenodd" clip-rule="evenodd" d="M0.0777588 30.2938C1.93374 30.7728 4.26791 31.819 6.60209 35.0351V34.4919V33.9487V33.4056V32.8624V32.3192V31.776V31.2329V30.6897C5.89445 29.0888 4.14403 26.3521 0.667852 25.398C0.377919 26.9924 0.178971 28.627 0.0777588 30.2938Z" fill="#64676B"/>
<path id="Subtract_19" fill-rule="evenodd" clip-rule="evenodd" d="M2.93087 16.2777C2.92785 16.2854 2.92484 16.293 2.92181 16.3007C2.86492 16.4453 2.80544 16.5965 2.73027 16.7476C2.68525 16.9287 2.61772 17.0871 2.55019 17.2455C2.48267 17.404 2.41514 17.5624 2.37012 17.7434C3.99081 18.015 6.3318 18.7393 7.86245 21.6362C7.90747 21.4552 7.95249 21.2967 7.99751 21.1383C8.04253 20.9799 8.08755 20.8214 8.13257 20.6404L8.13261 20.6402C8.22264 20.2781 8.31266 19.9161 8.40268 19.6446C8.4477 19.5088 8.49272 19.3503 8.53774 19.1919C8.58276 19.0335 8.62778 18.8751 8.6728 18.7393C8.71782 18.6035 8.76284 18.445 8.80786 18.2866C8.85288 18.1282 8.8979 17.9698 8.94291 17.834C8.6728 16.5666 7.59234 14.3033 4.17088 13.8507L4.12972 13.8507C3.79797 14.465 3.48182 15.0922 3.18191 15.7314C3.18097 15.7382 3.18046 15.745 3.18046 15.7518C3.16976 15.7679 3.15937 15.7844 3.14926 15.8012C3.07547 15.9593 3.00267 16.1181 2.93087 16.2777Z" fill="#64676B"/>
<path id="Subtract_20" fill-rule="evenodd" clip-rule="evenodd" d="M4.98283 12.3554C6.71643 12.6512 8.64097 13.3392 9.75294 15.6613C9.79796 15.5255 9.86548 15.3897 9.93301 15.2539C10.0005 15.1181 10.0681 14.9823 10.1131 14.8465C10.1581 14.7107 10.2256 14.5749 10.2932 14.4392C10.3607 14.3034 10.4282 14.1676 10.4732 14.0318C10.5633 13.7602 10.6533 13.4886 10.8334 13.217C10.9234 13.0812 10.991 12.9454 11.0585 12.8096C11.126 12.6738 11.1936 12.538 11.2836 12.4022C11.1092 11.1747 10.2591 9.60754 7.261 9.0166C6.44669 10.0737 5.68562 11.1886 4.98283 12.3554Z" fill="#64676B"/>
<path id="Subtract_21" fill-rule="evenodd" clip-rule="evenodd" d="M8.07387 8.00252C10.4086 8.30573 11.759 9.11561 12.3636 10.592C12.4236 10.5015 12.4737 10.421 12.5237 10.3406C12.6237 10.1796 12.7238 10.0187 12.9039 9.77727C12.967 9.58674 13.0745 9.44076 13.1952 9.27682C13.2466 9.20708 13.3003 9.13409 13.354 9.05304C13.4441 8.87198 13.6242 8.60039 13.8042 8.41933C13.8943 8.3288 13.9843 8.21564 14.0744 8.10247C14.1644 7.98931 14.2544 7.87615 14.3445 7.78562C14.2553 6.35098 12.9295 5.538 10.5422 5.34668C9.67836 6.17857 8.85429 7.06534 8.07387 8.00252Z" fill="#64676B"/>
</g>
</svg>
