<svg width="38" height="38" viewBox="0 0 38 38" fill="none" xmlns="http://www.w3.org/2000/svg">
<g id="Group 33712">
<path id="Vector" d="M16.3996 2.60039L2.60036 16.3996C1.16422 17.8358 1.16422 20.1642 2.60036 21.6004L16.3996 35.3996C17.8358 36.8358 20.1642 36.8358 21.6003 35.3996L35.3996 21.6004C36.8357 20.1642 36.8357 17.8358 35.3996 16.3996L21.6003 2.60038C20.1642 1.16424 17.8358 1.16424 16.3996 2.60039Z" fill="#242424"/>
<path id="Vector_2" d="M19.0431 29.8819C25.0528 29.8819 29.9247 25.01 29.9247 19.0003C29.9247 12.9905 25.0528 8.11865 19.0431 8.11865C13.0333 8.11865 8.16144 12.9905 8.16144 19.0003C8.16144 25.01 13.0333 29.8819 19.0431 29.8819Z" fill="#FCFCFC"/>
<path id="Vector_3" d="M22.2622 12.1995H15.9186C13.8876 12.1995 12.2411 13.8459 12.2411 15.8769V22.2206C12.2411 24.2516 13.8876 25.898 15.9186 25.898H22.2622C24.2933 25.898 25.9397 24.2516 25.9397 22.2206V15.8769C25.9397 13.8459 24.2933 12.1995 22.2622 12.1995Z" fill="#242424"/>
<path id="Vector_4" d="M19.0234 23.7234C21.642 23.7234 23.7649 21.6006 23.7649 18.982C23.7649 16.3633 21.642 14.2405 19.0234 14.2405C16.4048 14.2405 14.2819 16.3633 14.2819 18.982C14.2819 21.6006 16.4048 23.7234 19.0234 23.7234Z" fill="#FCFCFC"/>
<path id="Vector_5" d="M18.3097 17.6938L17.8702 18.1332C17.3915 18.6119 17.3915 19.3881 17.8702 19.8668L18.3097 20.3062C18.7884 20.785 19.5645 20.785 20.0432 20.3062L20.4827 19.8668C20.9614 19.3881 20.9614 18.6119 20.4827 18.1332L20.0432 17.6938C19.5645 17.215 18.7884 17.215 18.3097 17.6938Z" fill="#242424"/>
</g>
</svg>
