<svg width="188" height="188" viewBox="0 0 188 188" fill="none" xmlns="http://www.w3.org/2000/svg">
<g id="vuesax/bold/shopping-cart">
<g id="shopping-cart">
<path id="Union" fill-rule="evenodd" clip-rule="evenodd" d="M37.9137 30.8627L36.347 50.0543C36.0337 53.736 38.932 56.791 42.6137 56.791H162.542C165.832 56.791 168.574 54.2844 168.809 50.9944C169.827 37.1293 159.252 25.8493 145.387 25.8493H49.1153C48.332 22.4027 46.7653 19.1127 44.337 16.371C40.4203 12.2193 34.937 9.79102 29.297 9.79102H15.667C12.4553 9.79102 9.79199 12.4543 9.79199 15.666C9.79199 18.8777 12.4553 21.541 15.667 21.541H29.297C31.7253 21.541 33.997 22.5593 35.642 24.2827C37.287 26.0843 38.0703 28.4343 37.9137 30.8627ZM78.3337 162.541C78.3337 170.112 72.1962 176.249 64.6253 176.249C57.0544 176.249 50.917 170.112 50.917 162.541C50.917 154.97 57.0544 148.833 64.6253 148.833C72.1962 148.833 78.3337 154.97 78.3337 162.541ZM141 162.541C141 170.112 134.863 176.249 127.292 176.249C119.721 176.249 113.584 170.112 113.584 162.541C113.584 154.97 119.721 148.833 127.292 148.833C134.863 148.833 141 154.97 141 162.541ZM40.4991 68.541H160.662C164.344 68.541 167.164 71.596 166.851 75.1994L164.266 111.781C163.404 123.531 153.064 133.166 141.314 133.166H54.2074C40.8124 133.166 30.3157 121.729 31.4124 108.334L34.2324 74.2593C34.5457 71.0477 37.2091 68.541 40.4991 68.541Z" fill="white" fill-opacity="0.8"/>
</g>
</g>
</svg>
