<svg width="20" height="20" viewBox="0 0 20 20" fill="none" xmlns="http://www.w3.org/2000/svg">
<g id="Group">
<path id="Vector" d="M3.03477 17.8483C3.52211 17.8483 3.91719 17.4533 3.91719 16.9659C3.91719 16.4786 3.52211 16.0835 3.03477 16.0835C2.54742 16.0835 2.15234 16.4786 2.15234 16.9659C2.15234 17.4533 2.54742 17.8483 3.03477 17.8483Z" fill="white"/>
<path id="Vector_2" d="M0.887111 14.8191C0.46259 15.2436 0.17349 15.7845 0.0563695 16.3734C-0.0607512 16.9622 -0.00063251 17.5725 0.229123 18.1272C0.458879 18.6819 0.847952 19.156 1.34714 19.4895C1.84634 19.8231 2.43322 20.0011 3.03359 20.0011C3.63397 20.0011 4.22085 19.8231 4.72005 19.4895C5.21924 19.156 5.60831 18.6819 5.83807 18.1272C6.06782 17.5725 6.12794 16.9622 6.01082 16.3734C5.8937 15.7845 5.6046 15.2436 5.18008 14.8191C4.61045 14.2505 3.83846 13.9311 3.03359 13.9311C2.22873 13.9311 1.45674 14.2505 0.887111 14.8191ZM4.07188 18.0039C3.86652 18.2092 3.60489 18.3491 3.32005 18.4057C3.03522 18.4624 2.73998 18.4333 2.47167 18.3222C2.20336 18.2111 1.97403 18.0228 1.81269 17.7814C1.65134 17.5399 1.56522 17.256 1.56522 16.9656C1.56522 16.6752 1.65134 16.3913 1.81269 16.1498C1.97403 15.9083 2.20336 15.7201 2.47167 15.609C2.73998 15.4979 3.03522 15.4688 3.32005 15.5255C3.60489 15.5821 3.86652 15.722 4.07188 15.9273C4.34686 16.2029 4.5013 16.5763 4.5013 16.9656C4.5013 17.3549 4.34686 17.7283 4.07188 18.0039ZM19.6844 1.92185L18.0773 0.314818C17.8753 0.112921 17.6013 -0.000488281 17.3156 -0.000488281C17.03 -0.000488281 16.756 0.112921 16.5539 0.314818L15.6945 1.17419L18.8242 4.30388L19.6836 3.44451C19.8854 3.24256 19.9988 2.96881 19.9989 2.68334C19.999 2.39787 19.8859 2.12401 19.6844 1.92185ZM12.0672 5.30115L11.0961 6.27224L10.4711 5.64724C10.3711 5.54721 10.2523 5.46786 10.1216 5.41373C9.99092 5.35959 9.85084 5.33173 9.70938 5.33173C9.56791 5.33173 9.42783 5.35959 9.29714 5.41373C9.16644 5.46786 9.04769 5.54721 8.94766 5.64724C8.84763 5.74727 8.76828 5.86602 8.71414 5.99672C8.66001 6.12742 8.63214 6.2675 8.63214 6.40896C8.63214 6.55042 8.66001 6.6905 8.71414 6.8212C8.76828 6.95189 8.84763 7.07065 8.94766 7.17068L9.57266 7.79568L8.87891 8.48943L8.25391 7.86443C8.15388 7.7644 8.03512 7.68505 7.90443 7.63091C7.77373 7.57678 7.63365 7.54891 7.49219 7.54891C7.35072 7.54891 7.21064 7.57678 7.07995 7.63091C6.94925 7.68505 6.8305 7.7644 6.73047 7.86443C6.63044 7.96446 6.55109 8.08321 6.49695 8.21391C6.44282 8.3446 6.41495 8.48468 6.41495 8.62615C6.41495 8.76761 6.44282 8.90769 6.49695 9.03839C6.55109 9.16908 6.63044 9.28784 6.73047 9.38787L7.35547 10.0129L6.66133 10.707L6.03633 10.082C5.83431 9.87999 5.56031 9.76649 5.27461 9.76649C4.98891 9.76649 4.71491 9.87999 4.51289 10.082C4.31087 10.284 4.19738 10.558 4.19738 10.8437C4.19738 10.9852 4.22524 11.1253 4.27938 11.256C4.33351 11.3867 4.41286 11.5054 4.51289 11.6054L5.13789 12.2304L3.91172 13.4566C4.54761 13.6153 5.12836 13.944 5.59179 14.4074C6.05523 14.8708 6.38389 15.4516 6.54258 16.0875L7.77266 14.8586L8.39766 15.4836C8.49769 15.5836 8.61644 15.6629 8.74714 15.7171C8.87783 15.7712 9.01791 15.7991 9.15938 15.7991C9.30084 15.7991 9.44092 15.7712 9.57161 15.7171C9.70231 15.6629 9.82106 15.5836 9.92109 15.4836C10.0211 15.3835 10.1005 15.2648 10.1546 15.1341C10.2087 15.0034 10.2366 14.8633 10.2366 14.7218C10.2366 14.5804 10.2087 14.4403 10.1546 14.3096C10.1005 14.1789 10.0211 14.0602 9.92109 13.9601L9.29609 13.3351L9.99023 12.641L10.6152 13.266C10.8173 13.468 11.0913 13.5815 11.377 13.5815C11.6627 13.5815 11.9367 13.468 12.1387 13.266C12.3407 13.064 12.4542 12.79 12.4542 12.5043C12.4542 12.2186 12.3407 11.9446 12.1387 11.7426L11.5137 11.1176L12.2074 10.4238L12.8324 11.0488C13.0344 11.2508 13.3084 11.3643 13.5941 11.3643C13.8798 11.3643 14.1538 11.2508 14.3559 11.0488C14.5579 10.8468 14.6714 10.5728 14.6714 10.2871C14.6714 10.0014 14.5579 9.72739 14.3559 9.52537L13.7309 8.90037L14.702 7.92927L12.0672 5.30115ZM14.9051 1.21521C14.703 1.01331 14.429 0.899902 14.1434 0.899902C13.8577 0.899902 13.5837 1.01331 13.3816 1.21521L11.4445 3.15466C11.3239 3.2749 11.2338 3.42222 11.1816 3.58435L16.416 8.81872C16.5781 8.76658 16.7255 8.67645 16.8457 8.55583L18.7852 6.61638C18.9871 6.4143 19.1005 6.14032 19.1005 5.85466C19.1005 5.569 18.9871 5.29503 18.7852 5.09294L14.9051 1.21521Z" fill="white"/>
</g>
</svg>
