<svg width="20" height="20" viewBox="0 0 20 20" fill="none" xmlns="http://www.w3.org/2000/svg">
<g id="Group">
<path id="Vector" d="M20 2.33333C20 1.00809 18.8952 -0.0591342 17.5564 0.00254552C16.371 0.0571549 15.4046 1.01223 15.3372 2.197C15.281 3.18512 15.8402 4.04915 16.6667 4.4418V7.66665C16.6667 8.40301 16.0697 8.99997 15.3334 8.99997H12.1085C11.8773 8.51413 11.4859 8.1227 11.0001 7.89149V4.4418C11.8265 4.04911 12.3857 3.18512 12.3295 2.197C12.2621 1.01223 11.2958 0.0571549 10.1104 0.00254552C8.77154 -0.0590951 7.66674 1.00809 7.66674 2.33333C7.66674 3.26407 8.21181 4.06731 9.00006 4.4418V7.89153C8.51422 8.12274 8.12279 8.51417 7.89158 9.00001H3.33334V4.4418C4.15982 4.04911 4.719 3.18512 4.66279 2.197C4.59541 1.01223 3.62908 0.0571549 2.44365 0.00254552C1.10482 -0.0590951 1.74415e-05 1.00809 1.74415e-05 2.33333C1.74415e-05 3.26407 0.545095 4.06731 1.33334 4.4418V15.5582C0.506853 15.9509 -0.0523263 16.8148 0.00388463 17.803C0.0712674 18.9877 1.0376 19.9428 2.22303 19.9974C3.56185 20.0591 4.66666 18.9919 4.66666 17.6666C4.66666 16.7359 4.12158 15.9327 3.33334 15.5582V11H7.8915C8.12271 11.4858 8.51414 11.8773 8.99998 12.1085V15.5582C8.17349 15.9509 7.61431 16.8149 7.67052 17.803C7.73791 18.9878 8.70424 19.9429 9.88966 19.9975C11.2285 20.0591 12.3333 18.9919 12.3333 17.6667C12.3333 16.7359 11.7882 15.9327 11 15.5582V12.1085C11.4858 11.8773 11.8772 11.4858 12.1085 11H15.3333C17.1742 11 18.6666 9.50762 18.6666 7.66669V4.4418C19.4549 4.06731 20 3.26407 20 2.33333Z" fill="white"/>
</g>
</svg>
