<svg width="20" height="13" viewBox="0 0 20 13" fill="none" xmlns="http://www.w3.org/2000/svg">
<g id="Group">
<path id="Vector" d="M9.99994 9.5808C11.7004 9.5808 13.079 8.20227 13.079 6.50177C13.079 4.80126 11.7004 3.42273 9.99994 3.42273C8.29943 3.42273 6.9209 4.80126 6.9209 6.50177C6.9209 8.20227 8.29943 9.5808 9.99994 9.5808Z" fill="#98A0B1"/>
<path id="Vector_2" d="M19.6932 5.64885C17.3265 2.78881 13.7438 0.0357666 10 0.0357666C6.25555 0.0357666 2.67205 2.79073 0.306845 5.64885C-0.102282 6.14304 -0.102282 6.86045 0.306845 7.35464C0.901484 8.07321 2.14811 9.46031 3.8131 10.6723C8.00632 13.7249 11.9845 13.7316 16.187 10.6723C17.852 9.46031 19.0986 8.07321 19.6932 7.35464C20.1012 6.86141 20.1033 6.14465 19.6932 5.64885ZM10 2.19109C12.3771 2.19109 14.3107 4.12473 14.3107 6.50174C14.3107 8.87876 12.3771 10.8124 10 10.8124C7.62302 10.8124 5.68939 8.87876 5.68939 6.50174C5.68939 4.12473 7.62302 2.19109 10 2.19109Z" fill="#98A0B1"/>
</g>
</svg>
