<svg width="24" height="24" viewBox="0 0 24 24" fill="none" xmlns="http://www.w3.org/2000/svg">
<g id="icons 24px" clip-path="url(#clip0_1520_102819)">
<g id="Group">
<path id="Vector" d="M12.7031 6.80986V12.2687L18.3281 9.45605V3.99722L12.7031 6.80986ZM7.07812 16.6536V24.0002L11.2969 21.5755V14.5442L7.07812 16.6536ZM5.67188 3.99736V9.45623L11.2969 12.2687V6.80986L5.67188 3.99736ZM4.80258 10.594L0.75 12.6203L6.375 15.4328L10.4276 13.4065L4.80258 10.594ZM12.7031 14.5442V21.5755L16.9219 24.0002V16.6536L12.7031 14.5442ZM19.1972 10.5939L13.5724 13.4065L17.625 15.4328L23.2498 12.6202L19.1972 10.5939ZM0 13.8411V20.4377C1.49437e-05 20.5683 0.036378 20.6963 0.105018 20.8074C0.173657 20.9185 0.271864 21.0083 0.388641 21.0667L5.625 24.0002V16.6536L0 13.8411ZM18.375 16.6536V24.0002L23.6114 21.0667C23.7281 21.0083 23.8263 20.9185 23.895 20.8074C23.9636 20.6963 24 20.5683 24 20.4377V13.841L18.375 16.6536ZM12.3145 0.0743887C12.2168 0.0256274 12.1092 0.000244141 12 0.000244141C11.8908 0.000244141 11.7832 0.0256274 11.6855 0.0743887L6.375 2.77655L12 5.58904L17.6248 2.77645L12.3145 0.0743887Z" fill="#4EC1C1"/>
</g>
</g>
<defs>
<clipPath id="clip0_1520_102819">
<rect width="24" height="24" fill="white"/>
</clipPath>
</defs>
</svg>
