<svg width="19" height="17" viewBox="0 0 19 17" fill="none" xmlns="http://www.w3.org/2000/svg">
<g id="Group">
<path id="Vector" d="M9.03523 2.46191H4.47086L2.4668 4.46598V7.42723H9.03523V2.46191ZM2.4668 10.1894H4.70898V10.7166H2.4668V10.1894ZM9.66023 7.42723H15.6659V4.46598L13.6618 2.46191H9.6618L9.66023 7.42723ZM11.3509 7.08348L10.2662 6.00004L10.708 5.55816L11.7927 6.64316L11.3509 7.08348ZM10.8234 3.97254L13.4921 6.6416L13.0502 7.08348L10.3815 4.41441L10.8234 3.97254ZM9.66023 10.1894H11.9027V10.7166H9.66023V10.1894ZM3.0618 14.9785C3.18634 15.3264 3.25039 15.693 3.25117 16.0625H18.1287V14.9785H3.0618Z" fill="white"/>
<path id="Vector_2" d="M2.76234 14.3534H18.1289V3.44719L14.6823 0H3.45078L0.00390625 3.44563V12.8144C0.556758 12.8145 1.1004 12.956 1.58319 13.2253C2.06597 13.4947 2.47188 13.883 2.76234 14.3534ZM12.528 11.0291C12.528 11.1119 12.495 11.1914 12.4364 11.25C12.3778 11.3086 12.2983 11.3416 12.2155 11.3416H9.34797C9.26509 11.3416 9.1856 11.3086 9.127 11.25C9.06839 11.1914 9.03547 11.1119 9.03547 11.0291V9.87687C9.03547 9.79399 9.06839 9.71451 9.127 9.6559C9.1856 9.5973 9.26509 9.56437 9.34797 9.56437H12.2155C12.2983 9.56437 12.3778 9.5973 12.4364 9.6559C12.495 9.71451 12.528 9.79399 12.528 9.87687V11.0291ZM1.84328 4.33656C1.8433 4.25369 1.87623 4.17422 1.93484 4.11562L4.12234 1.92812C4.18094 1.86952 4.26041 1.83658 4.34328 1.83656H13.7914C13.8743 1.83658 13.9538 1.86952 14.0123 1.92812L16.1998 4.11562C16.2585 4.17422 16.2914 4.25369 16.2914 4.33656V7.73969C16.2914 7.82257 16.2585 7.90205 16.1999 7.96066C16.1413 8.01926 16.0618 8.05219 15.9789 8.05219H2.15578C2.0729 8.05219 1.99342 8.01926 1.93481 7.96066C1.87621 7.90205 1.84328 7.82257 1.84328 7.73969V4.33656ZM1.84328 11.0291V9.87687C1.84328 9.79399 1.87621 9.71451 1.93481 9.6559C1.99342 9.5973 2.0729 9.56437 2.15578 9.56437H5.02297C5.10585 9.56437 5.18533 9.5973 5.24394 9.6559C5.30254 9.71451 5.33547 9.79399 5.33547 9.87687V11.0291C5.33547 11.1119 5.30254 11.1914 5.24394 11.25C5.18533 11.3086 5.10585 11.3416 5.02297 11.3416H2.15578C2.0729 11.3416 1.99342 11.3086 1.93481 11.25C1.87621 11.1914 1.84328 11.1119 1.84328 11.0291Z" fill="white"/>
</g>
</svg>
