<svg width="20" height="18" viewBox="0 0 20 18" fill="none" xmlns="http://www.w3.org/2000/svg">
<g id="Group">
<path id="Vector" d="M19.0266 2.75479H6.18164V0.70752C6.18164 0.491504 6.00664 0.316895 5.79102 0.316895H3.23164C3.01563 0.316895 2.84102 0.491504 2.84102 0.70752V2.75479H0.973437C0.436719 2.75479 0 3.1915 0 3.72822V16.7099C0 17.2466 0.436719 17.6833 0.973437 17.6833H19.0266C19.5633 17.6833 20 17.2466 20 16.7099V3.72822C20 3.1915 19.5633 2.75479 19.0266 2.75479ZM3.62227 1.09814H5.40039V1.48682H3.62227V1.09814ZM2.36406 5.21611H8.30156C7.75508 5.40674 7.24805 5.68721 6.79688 6.03994C6.78594 6.03877 6.77461 6.03799 6.76328 6.03799H2.36406V5.21611ZM10 5.71025C12.5004 5.71025 14.5344 7.82041 14.5344 10.4145C14.5344 13.0083 12.5004 15.1185 10 15.1185C7.49961 15.1185 5.46562 13.0083 5.46562 10.4145C5.46562 7.82041 7.49961 5.71025 10 5.71025ZM2.36406 6.81924H5.98828C5.78398 7.06221 5.59961 7.32353 5.43867 7.60049H2.36406V6.81924ZM2.36406 8.38174H5.06289C4.96523 8.63369 4.88477 8.89463 4.82383 9.16299H2.36406V8.38174ZM2.36406 9.94424H4.70391C4.69102 10.0993 4.68437 10.256 4.68437 10.4145C4.68437 10.5188 4.6875 10.6228 4.69297 10.7255H2.36406V9.94424ZM2.36406 11.5067H4.79023C4.84297 11.7747 4.91484 12.0356 5.00391 12.288H2.36406V11.5067ZM2.36406 13.0692H5.35C5.49844 13.3454 5.66914 13.6063 5.85977 13.8505H2.36406V13.0692ZM2.36406 14.6317H6.60508C6.94609 14.9247 7.32266 15.1743 7.72773 15.3724H2.36406V14.6317ZM17.6359 16.9021H2.36406V16.1536H17.6359V16.9021ZM17.6359 15.3724H12.2723C12.6773 15.1743 13.0539 14.9247 13.3949 14.6317H17.6359V15.3724ZM17.6359 13.8505H14.1402C14.3309 13.6063 14.5016 13.3454 14.65 13.0692H17.6359V13.8505ZM17.6359 12.288H14.9961C15.0852 12.0356 15.157 11.7747 15.2098 11.5067H17.6359V12.288ZM17.6359 10.7255H15.307C15.3125 10.6228 15.3156 10.5188 15.3156 10.4145C15.3156 10.256 15.309 10.0993 15.2961 9.94424H17.6359V10.7255ZM17.6359 9.16299H15.1762C15.1152 8.89463 15.0348 8.63369 14.9371 8.38174H17.6359V9.16299ZM17.6359 7.60049H14.5613C14.4004 7.32353 14.216 7.06221 14.0117 6.81924H17.6359V7.60049ZM17.6359 6.03799H13.2012C12.7504 5.68642 12.2441 5.40674 11.6984 5.21611H17.6359V6.03799ZM17.6359 4.43486H2.36406V3.53604H17.6359V4.43486Z" fill="white"/>
<path id="Vector_2" d="M7.60117 11.4441H8.4918C8.54336 11.5199 8.60039 11.5918 8.6625 11.6586L7.34102 13.6727C7.26211 13.7926 7.25547 13.9461 7.32383 14.0727C7.35729 14.1347 7.40691 14.1865 7.46743 14.2226C7.52795 14.2587 7.59711 14.2778 7.66758 14.2777H9.68594C10.0906 14.2777 10.4668 14.0945 10.7184 13.7754C10.9727 13.4527 11.0633 13.0383 10.9668 12.6379L10.8215 12.0328C10.9605 11.9594 11.0891 11.8687 11.2039 11.7633L13.1266 12.8957C13.1866 12.931 13.255 12.9496 13.3246 12.9496C13.3914 12.9496 13.4586 12.9328 13.5184 12.8984C13.6402 12.8289 13.7152 12.6992 13.7152 12.559V10.7648C13.7152 10.0328 13.1242 9.4375 12.3973 9.4375H11.5121C11.4401 9.32315 11.3556 9.21716 11.2602 9.12148L12.55 7.15586C12.6289 7.03594 12.6355 6.88242 12.5672 6.75586C12.5337 6.69384 12.4841 6.64203 12.4236 6.60592C12.3631 6.56982 12.2939 6.55076 12.2234 6.55078H10.2051C9.80039 6.55078 9.42422 6.73398 9.17266 7.05312C8.91836 7.37578 8.82773 7.79062 8.92422 8.19102L9.0793 8.83711C8.95411 8.91081 8.83807 8.99906 8.73359 9.1L6.87422 7.98711C6.81494 7.95173 6.74735 7.93269 6.67831 7.93193C6.60928 7.93118 6.54129 7.94873 6.48125 7.98281C6.42108 8.01682 6.37103 8.06621 6.33623 8.12593C6.30143 8.18565 6.28313 8.25354 6.2832 8.32266V10.1168C6.2832 10.8488 6.87422 11.4441 7.60117 11.4441Z" fill="white"/>
</g>
</svg>
