<svg width="25" height="25" viewBox="0 0 25 25" fill="none" xmlns="http://www.w3.org/2000/svg">
<g id="vuesax/bold/driving">
<g id="driving">
<path id="Union" fill-rule="evenodd" clip-rule="evenodd" d="M20.5 6.94215C20.5 7.25207 20.2173 7.5 19.8894 7.5H5.1106C4.77138 7.5 4.5 7.24174 4.5 6.94215C4.5 6.63223 4.78269 6.3843 5.1106 6.3843H5.94735L6.26396 5.03099C6.55795 3.70868 7.16855 2.5 9.61095 2.5H15.3664C17.8088 2.5 18.4307 3.70868 18.7247 5.02066L19.0413 6.37397H19.8781C20.2173 6.37397 20.5 6.63223 20.5 6.94215ZM11.7812 20.2088C11.7812 20.5993 12.1051 20.9231 12.4956 20.9231C12.8861 20.9231 13.2099 20.5993 13.2099 20.2088V19.2563C13.2099 18.8658 12.8861 18.542 12.4956 18.542C12.1051 18.542 11.7812 18.8658 11.7812 19.2563V20.2088ZM11.7812 24.0184C11.7812 24.4089 12.1051 24.7327 12.4956 24.7327C12.8861 24.7327 13.2099 24.4089 13.2099 24.0184V23.0659C13.2099 22.6754 12.8861 22.3516 12.4956 22.3516C12.1051 22.3516 11.7812 22.6754 11.7812 23.0659V24.0184ZM2.97021 24.733C2.91307 24.733 2.85593 24.7235 2.7988 24.714L2.79876 24.714C2.41778 24.6188 2.17966 24.2282 2.27491 23.8473L3.22737 20.0374C3.32262 19.6564 3.7036 19.4183 4.09411 19.5136C4.4751 19.6088 4.71321 19.9993 4.61797 20.3803L3.6655 24.1901C3.57978 24.514 3.29404 24.733 2.97021 24.733ZM21.0893 23.9545C21.175 24.2783 21.4607 24.4974 21.7845 24.4974C21.8417 24.4974 21.8988 24.4879 21.956 24.4784L21.956 24.4783C22.3465 24.3831 22.5751 23.9926 22.4798 23.6116L21.5274 19.8018C21.4321 19.4112 21.0416 19.1827 20.6606 19.2779C20.2701 19.3731 20.0415 19.7637 20.1368 20.1446L21.0893 23.9545ZM17.8459 8.5C20.5333 8.5 20.9023 9.7602 21.0292 10.9509L21.4906 15.3368C21.5482 15.8826 21.3406 16.4383 20.9023 16.8451C20.4525 17.2619 19.8182 17.5 19.1607 17.5H17.5921C16.2427 17.5 15.9774 16.8352 15.816 16.3886L15.6429 15.952L15.6388 15.9416C15.4235 15.4054 15.3959 15.3368 14.651 15.3368H10.3605C9.61172 15.3368 9.56478 15.4556 9.36931 15.9502L9.36859 15.952L9.19558 16.3886L9.19412 16.3924C9.02114 16.8389 8.76502 17.5 7.40785 17.5H5.83926C5.17031 17.5 4.54748 17.2619 4.09767 16.8451C3.65939 16.4283 3.45178 15.8826 3.50945 15.3368L3.98233 10.9509C4.12074 9.77012 4.47828 8.5 7.16564 8.5H17.8459ZM7.48859 12.4592H9.99141C10.3374 12.4592 10.6258 12.2111 10.6258 11.9234C10.6258 11.6356 10.349 11.3875 10.0029 11.3875H7.48859C7.15411 11.3875 6.86577 11.6356 6.86577 11.9234C6.86577 12.2111 7.14258 12.4592 7.48859 12.4592ZM15.0086 12.4592H17.5229C17.869 12.4592 18.1458 12.2111 18.1458 11.9234C18.1458 11.6356 17.869 11.3875 17.5229 11.3875H15.0086C14.6741 11.3875 14.3858 11.6356 14.3858 11.9234C14.3858 12.2111 14.6626 12.4592 15.0086 12.4592Z" fill="#4EC1C1"/>
</g>
</g>
</svg>
