<svg width="20" height="20" viewBox="0 0 20 20" fill="none" xmlns="http://www.w3.org/2000/svg">
<g id="Group">
<g id="Electric Plug-ev-electric car-vehicle-plug">
<path id="Vector" d="M17.6277 4.55605C17.8688 4.25843 17.9905 3.88177 17.9691 3.49937C17.9477 3.11697 17.7848 2.75621 17.5121 2.4873L16.6277 1.60293C16.5686 1.54577 16.4896 1.51381 16.4074 1.51381C16.3252 1.51381 16.2462 1.54577 16.1871 1.60293L15.9652 1.8248L15.0809 0.94043L14.6402 1.38105L15.5246 2.26543L15.0809 2.70918L14.1996 1.8248L13.7559 2.26543L14.6402 3.1498L14.4184 3.37168C14.3893 3.40016 14.3663 3.43422 14.3507 3.47181C14.3352 3.5094 14.3273 3.54974 14.3277 3.59043C14.3273 3.63158 14.3351 3.6724 14.3507 3.7105C14.3662 3.7486 14.3893 3.78321 14.4184 3.8123L15.3027 4.69668C15.5395 4.93538 15.8477 5.0902 16.1805 5.13758C16.5133 5.18497 16.8525 5.12232 17.1465 4.95918C18.1937 6.43097 18.7542 8.19349 18.7496 9.99981C18.7483 11.4357 18.394 12.8492 17.7179 14.1159C17.0418 15.3826 16.0646 16.4636 14.8723 17.2638C13.6801 18.064 12.3094 18.5588 10.881 18.7045C9.45253 18.8503 8.01015 18.6426 6.68086 18.0998L6.44336 18.6779C7.86759 19.2598 9.41303 19.4825 10.9436 19.3264C12.4741 19.1703 13.9428 18.6403 15.2203 17.783C16.4978 16.9257 17.5449 15.7674 18.2693 14.4101C18.9937 13.0529 19.3733 11.5383 19.3746 9.99981C19.3798 8.04659 18.7685 6.14154 17.6277 4.55605Z" fill="white"/>
<path id="Vector_2" d="M4.0625 10C4.0625 11.1743 4.41073 12.3223 5.06315 13.2987C5.71557 14.2751 6.64288 15.0361 7.72782 15.4855C8.81275 15.9349 10.0066 16.0525 11.1583 15.8234C12.3101 15.5943 13.3681 15.0288 14.1984 14.1984C15.0288 13.3681 15.5943 12.3101 15.8234 11.1583C16.0525 10.0066 15.9349 8.81275 15.4855 7.72782C15.0361 6.64288 14.2751 5.71557 13.2987 5.06315C12.3223 4.41073 11.1743 4.0625 10 4.0625C8.42571 4.06391 6.9163 4.68991 5.80311 5.80311C4.68991 6.9163 4.06391 8.42571 4.0625 10ZM10.3125 6.875V9.0625H11.875C11.9283 9.06266 11.9806 9.07644 12.0271 9.10252C12.0735 9.1286 12.1125 9.16613 12.1404 9.21153C12.1683 9.25693 12.1841 9.3087 12.1863 9.36192C12.1885 9.41514 12.1771 9.46805 12.1531 9.51562L10.2781 13.2656C10.2522 13.3172 10.2124 13.3605 10.1633 13.3908C10.1142 13.4212 10.0577 13.4373 10 13.4375C9.97574 13.4375 9.95158 13.4343 9.92812 13.4281C9.85979 13.412 9.79889 13.3733 9.75524 13.3183C9.71159 13.2633 9.68772 13.1952 9.6875 13.125V10.9375H8.125C8.07173 10.9373 8.01938 10.9236 7.97294 10.8975C7.92649 10.8714 7.88748 10.8339 7.85961 10.7885C7.83175 10.7431 7.81595 10.6913 7.81372 10.6381C7.81149 10.5849 7.8229 10.5319 7.84687 10.4844L9.72187 6.73437C9.75378 6.67209 9.80566 6.62232 9.86922 6.59304C9.93277 6.56375 10.0043 6.55664 10.0724 6.57285C10.1405 6.58906 10.2011 6.62764 10.2447 6.68243C10.2882 6.73721 10.3121 6.80502 10.3125 6.875Z" fill="white"/>
<path id="Vector_3" d="M5.58128 16.6281C5.61034 16.5996 5.63334 16.5656 5.64891 16.528C5.66449 16.4904 5.67231 16.45 5.67191 16.4094C5.67232 16.3682 5.66451 16.3274 5.64895 16.2893C5.63339 16.2512 5.61039 16.2166 5.58128 16.1875L4.69691 15.3031C4.46018 15.0644 4.15194 14.9096 3.81912 14.8622C3.48629 14.8148 3.1471 14.8775 2.85316 15.0406C1.80595 13.5688 1.2454 11.8063 1.25003 9.99999C1.25132 8.56413 1.60562 7.15061 2.28175 5.8839C2.95787 4.61719 3.93508 3.53615 5.12731 2.73598C6.31954 1.93581 7.69023 1.44105 9.11867 1.29526C10.5471 1.14948 11.9895 1.35715 13.3188 1.89999L13.5563 1.32186C12.1321 0.74003 10.5866 0.517338 9.05605 0.673402C7.5255 0.829465 6.0568 1.3595 4.77932 2.21681C3.50184 3.07413 2.45477 4.23242 1.73033 5.58967C1.00589 6.94693 0.626316 8.4615 0.625033 9.99999C0.619821 11.9532 1.23114 13.8583 2.37191 15.4437C2.13086 15.7414 2.00918 16.118 2.03055 16.5004C2.05192 16.8828 2.21482 17.2436 2.48753 17.5125L3.37191 18.3969C3.431 18.454 3.51 18.486 3.59222 18.486C3.67444 18.486 3.75344 18.454 3.81253 18.3969L4.03441 18.175L4.91878 19.0594L5.35941 18.6187L4.47503 17.7344L4.91878 17.2906L5.80003 18.175L6.24378 17.7344L5.35941 16.85L5.58128 16.6281Z" fill="white"/>
</g>
</g>
</svg>
