<svg width="24" height="24" viewBox="0 0 24 24" fill="none" xmlns="http://www.w3.org/2000/svg">
<g id="Group">
<path id="Vector" d="M11.16 18.84C11.64 19.32 12.36 19.32 12.84 18.84L17.64 14.04C18.12 13.56 18.12 12.84 17.64 12.36C17.16 11.88 16.44 11.88 15.96 12.36L13.2 15.12V1.2C13.2 0.48 12.72 0 12 0C11.28 0 10.8 0.48 10.8 1.2V15.12L8.04 12.36C7.56 11.88 6.84 11.88 6.36 12.36C5.88 12.84 5.88 13.56 6.36 14.04L11.16 18.84Z" fill="#98A0B1"/>
<path id="Vector_2" d="M22.8 16.8008C22.08 16.8008 21.6 17.2808 21.6 18.0008V21.6008H2.4V18.0008C2.4 17.2808 1.92 16.8008 1.2 16.8008C0.48 16.8008 0 17.2808 0 18.0008V22.8008C0 23.5208 0.48 24.0008 1.2 24.0008H22.8C23.52 24.0008 24 23.5208 24 22.8008V18.0008C24 17.2808 23.52 16.8008 22.8 16.8008Z" fill="#98A0B1"/>
</g>
</svg>
