<svg width="24" height="24" viewBox="0 0 24 24" fill="none" xmlns="http://www.w3.org/2000/svg">
<g id="icons 24px" clip-path="url(#clip0_1121_1709)">
<g id="Group">
<path id="Vector" d="M22.0742 15.7533C20.6049 15.7533 19.1621 15.5234 17.7949 15.0716C17.125 14.8431 16.3014 15.0528 15.8926 15.4727L13.194 17.5098C10.0644 15.8393 8.13669 13.9121 6.48894 10.8061L8.46612 8.17781C8.97981 7.66481 9.16406 6.91544 8.94331 6.21231C8.48956 4.83794 8.25906 3.39587 8.25906 1.92587C8.25913 0.863937 7.39519 0 6.33331 0H1.92581C0.863937 0 0 0.863937 0 1.92581C0 14.0977 9.90237 24 22.0742 24C23.1361 24 24.0001 23.1361 24.0001 22.0742V17.679C24 16.6172 23.1361 15.7533 22.0742 15.7533Z" fill="url(#paint0_linear_1121_1709)"/>
</g>
</g>
<defs>
<linearGradient id="paint0_linear_1121_1709" x1="-4.16843" y1="-1.58823" x2="31.1157" y2="-1.46341" gradientUnits="userSpaceOnUse">
<stop stop-color="#93C407"/>
<stop offset="1" stop-color="#67BF22"/>
</linearGradient>
<clipPath id="clip0_1121_1709">
<rect width="24" height="24" fill="white"/>
</clipPath>
</defs>
</svg>
