<svg width="19" height="17" viewBox="0 0 19 17" fill="none" xmlns="http://www.w3.org/2000/svg">
<g id="Group">
<path id="Vector" fill-rule="evenodd" clip-rule="evenodd" d="M10.0241 12.6837L13.508 16.2393C13.6713 16.4057 13.8926 16.4992 14.1234 16.4992C14.3542 16.4992 14.5756 16.4057 14.7389 16.2393L18.2228 12.6837C18.3084 12.6023 18.377 12.5042 18.4246 12.3952C18.4722 12.2861 18.4978 12.1684 18.4999 12.0491C18.5019 11.9297 18.4804 11.8112 18.4366 11.7005C18.3928 11.5898 18.3276 11.4893 18.2449 11.4048C18.1622 11.3204 18.0637 11.2539 17.9552 11.2092C17.8468 11.1645 17.7306 11.1425 17.6137 11.1446C17.4967 11.1467 17.3814 11.1729 17.2746 11.2214C17.1677 11.27 17.0716 11.3401 16.9918 11.4274L14.9944 13.4659V1.38889C14.9944 1.15314 14.9026 0.927048 14.7393 0.760349C14.576 0.59365 14.3544 0.5 14.1234 0.5C13.8924 0.5 13.6709 0.59365 13.5076 0.760349C13.3442 0.927048 13.2525 1.15314 13.2525 1.38889V13.4659L11.255 11.4274C11.1753 11.3401 11.0792 11.27 10.9723 11.2214C10.8655 11.1729 10.7501 11.1467 10.6332 11.1446C10.5163 11.1425 10.4001 11.1645 10.2916 11.2092C10.1832 11.2539 10.0847 11.3204 10.002 11.4048C9.91927 11.4893 9.85407 11.5898 9.81026 11.7005C9.76646 11.8112 9.74494 11.9297 9.74701 12.0491C9.74907 12.1684 9.77467 12.2861 9.82227 12.3952C9.86987 12.5042 9.93851 12.6023 10.0241 12.6837ZM5.4486 0.76074C5.28529 0.594281 5.06392 0.500782 4.83311 0.500782C4.60231 0.500782 4.38094 0.594281 4.21763 0.76074L0.733758 4.3163C0.57991 4.4848 0.496155 4.70767 0.500136 4.93795C0.504117 5.16823 0.595524 5.38795 0.7551 5.55081C0.914677 5.71367 1.12996 5.80696 1.3556 5.81102C1.58124 5.81509 1.79962 5.72961 1.96473 5.57259L3.96215 3.53407V15.6111C3.96215 15.8469 4.05391 16.073 4.21725 16.2397C4.38058 16.4063 4.60212 16.5 4.83311 16.5C5.06411 16.5 5.28564 16.4063 5.44898 16.2397C5.61232 16.073 5.70408 15.8469 5.70408 15.6111V3.53407L7.7015 5.57259C7.78124 5.65992 7.87739 5.72997 7.98423 5.77856C8.09107 5.82714 8.2064 5.85326 8.32335 5.85537C8.44029 5.85747 8.55645 5.83552 8.6649 5.79081C8.77336 5.74611 8.87187 5.67956 8.95458 5.59516C9.03728 5.51075 9.10248 5.41021 9.14629 5.29952C9.19009 5.18884 9.21161 5.07029 9.20954 4.95094C9.20748 4.83158 9.18188 4.71388 9.13428 4.60484C9.08668 4.49581 9.01804 4.39767 8.93247 4.3163L5.4486 0.76074Z" fill="white"/>
</g>
</svg>
